<svg width="12" height="12" viewBox="0 0 12 12" fill="none" xmlns="http://www.w3.org/2000/svg">
<g id="ep:view">
<path id="Vector" d="M6 1.875C9.75 1.875 12 6 12 6C12 6 9.75 10.125 6 10.125C2.25 10.125 0 6 0 6C0 6 2.25 1.875 6 1.875ZM6 2.625C3.36 2.625 1.4985 5.06325 0.88125 6C1.49775 6.936 3.35925 9.375 6 9.375C8.64 9.375 10.5015 6.93675 11.1187 6C10.5022 5.064 8.64075 2.625 6 2.625ZM6 3.375C6.69619 3.375 7.36387 3.65156 7.85616 4.14384C8.34844 4.63613 8.625 5.30381 8.625 6C8.625 6.69619 8.34844 7.36387 7.85616 7.85616C7.36387 8.34844 6.69619 8.625 6 8.625C5.30381 8.625 4.63613 8.34844 4.14384 7.85616C3.65156 7.36387 3.375 6.69619 3.375 6C3.375 5.30381 3.65156 4.63613 4.14384 4.14384C4.63613 3.65156 5.30381 3.375 6 3.375ZM6 4.125C5.5029 4.1256 5.02633 4.32333 4.67483 4.67483C4.32333 5.02633 4.1256 5.5029 4.125 6C4.125 7.0335 4.96575 7.875 6 7.875C7.03425 7.875 7.875 7.0335 7.875 6C7.875 4.9665 7.03425 4.125 6 4.125Z" fill="#383838"/>
</g>
</svg>
