<svg width="24" height="24" viewBox="0 0 24 24" fill="none" xmlns="http://www.w3.org/2000/svg">
<g id="favorite icon">
<path id="favorite" d="M11.9661 20.2097L10.9279 19.2659C9.3549 17.8502 8.05718 16.6312 7.03473 15.6087C6.01229 14.5863 5.20219 13.6777 4.60445 12.883C4.00672 12.089 3.58987 11.3654 3.35392 10.7123C3.11797 10.0598 3 9.39537 3 8.71899C3 7.38194 3.45239 6.26102 4.35718 5.35624C5.26134 4.45208 6.38194 4 7.71899 4C8.53694 4 9.31558 4.19253 10.0549 4.5776C10.7942 4.9633 11.4313 5.51794 11.9661 6.24152C12.5009 5.51794 13.138 4.9633 13.8773 4.5776C14.6166 4.19253 15.3952 4 16.2132 4C17.5502 4 18.6708 4.45208 19.575 5.35624C20.4798 6.26102 20.9321 7.38194 20.9321 8.71899C20.9321 9.39537 20.8142 10.0598 20.5782 10.7123C20.3423 11.3654 19.9254 12.089 19.3277 12.883C18.73 13.6777 17.9199 14.5863 16.8974 15.6087C15.875 16.6312 14.5772 17.8502 13.0043 19.2659L11.9661 20.2097ZM11.9661 18.2985C13.4761 16.9458 14.7188 15.7817 15.6941 14.8065C16.6693 13.8312 17.4401 12.9856 18.0064 12.2695C18.5727 11.5542 18.9659 10.9212 19.1861 10.3706C19.4063 9.82008 19.5165 9.26953 19.5165 8.71899C19.5165 7.77519 19.2019 6.98869 18.5727 6.35949C17.9435 5.73029 17.157 5.4157 16.2132 5.4157C15.4739 5.4157 14.7855 5.62805 14.1481 6.05276C13.6905 6.35797 13.3039 6.74849 12.9883 7.22431C12.7561 7.57446 12.383 7.82238 11.9628 7.82238C11.546 7.82238 11.1748 7.5787 10.9448 7.23112C10.6203 6.74074 10.2293 6.34386 9.77174 6.04049C9.14255 5.62396 8.45829 5.4157 7.71899 5.4157C6.77519 5.4157 5.98869 5.73029 5.35949 6.35949C4.73029 6.98869 4.4157 7.77519 4.4157 8.71899C4.4157 9.26953 4.52581 9.82008 4.74602 10.3706C4.96624 10.9212 5.35949 11.5542 5.92577 12.2695C6.49205 12.9856 7.26282 13.8271 8.23807 14.7942C9.21333 15.7619 10.456 16.93 11.9661 18.2985Z" fill="#1C1B1F"/>
</g>
</svg>
