<svg width="18" height="18" viewBox="0 0 18 18" fill="none" xmlns="http://www.w3.org/2000/svg">
<g id="UI icon/settings/filled">
<path id="Subtract" fillRule="evenodd" clip-rule="evenodd" d="M6.82103 2.64765C6.68434 3.0577 6.37236 3.38004 5.99473 3.59032C5.93599 3.62302 5.87784 3.65665 5.8203 3.6912C5.44928 3.91393 5.01364 4.02329 4.58968 3.93653L3.68835 3.75209C3.05581 3.62265 2.41141 3.91249 2.08859 4.47164L1.62285 5.27831C1.30003 5.83746 1.37122 6.54045 1.79959 7.02352L2.41086 7.71286C2.6973 8.03587 2.82109 8.46665 2.81425 8.89832C2.81317 8.96607 2.81317 9.03389 2.81425 9.10164C2.82108 9.53331 2.69729 9.96408 2.41086 10.2871L1.79959 10.9764C1.37122 11.4595 1.30003 12.1625 1.62285 12.7216L2.08859 13.5283C2.41141 14.0875 3.05581 14.3773 3.68835 14.2479L4.58962 14.0634C5.01358 13.9767 5.44923 14.086 5.82025 14.3088C5.87781 14.3433 5.93597 14.377 5.99473 14.4097C6.37236 14.62 6.68434 14.9423 6.82103 15.3523L7.11169 16.2243C7.31586 16.8369 7.88907 17.25 8.53472 17.25H9.46619C10.1118 17.25 10.685 16.8369 10.8892 16.2243L11.1799 15.3523C11.3166 14.9423 11.6285 14.62 12.0062 14.4097C12.0649 14.377 12.1231 14.3433 12.1806 14.3088C12.5517 14.086 12.9873 13.9767 13.4113 14.0634L14.3125 14.2479C14.9451 14.3773 15.5895 14.0875 15.9123 13.5283L16.378 12.7216C16.7008 12.1625 16.6296 11.4595 16.2013 10.9764L15.59 10.2871C15.3036 9.96412 15.1798 9.53335 15.1867 9.10168C15.1877 9.0339 15.1877 8.96606 15.1867 8.89828C15.1798 8.46661 15.3036 8.03583 15.59 7.71282L16.2013 7.02352C16.6296 6.54045 16.7008 5.83746 16.378 5.27832L15.9123 4.47164C15.5895 3.91249 14.9451 3.62265 14.3125 3.75209L13.4112 3.93653C12.9873 4.02328 12.5516 3.91392 12.1806 3.69119C12.1231 3.65665 12.0649 3.62302 12.0062 3.59032C11.6285 3.38004 11.3166 3.0577 11.1799 2.64765L10.8892 1.77566C10.685 1.16314 10.1118 0.75 9.46619 0.75H8.53472C7.88907 0.75 7.31586 1.16315 7.11169 1.77566L6.82103 2.64765ZM11.2505 9C11.2505 10.2426 10.2431 11.25 9.0005 11.25C7.75786 11.25 6.7505 10.2426 6.7505 9C6.7505 7.75736 7.75786 6.75 9.0005 6.75C10.2431 6.75 11.2505 7.75736 11.2505 9Z" fill="#808191"/>
</g>
</svg>
