<svg width="75" height="75" viewBox="0 0 75 75" fill="none" xmlns="http://www.w3.org/2000/svg">
<g id="vuesax/linear/video-circle">
<g id="video-circle">
<g id="Vector" filter="url(#filter0_b_1002_7296)">
<path d="M37.5 68.75C54.7589 68.75 68.75 54.7589 68.75 37.5C68.75 20.2411 54.7589 6.25 37.5 6.25C20.2411 6.25 6.25 20.2411 6.25 37.5C6.25 54.7589 20.2411 68.75 37.5 68.75Z" fill="white"/>
<path d="M37.5 68.75C54.7589 68.75 68.75 54.7589 68.75 37.5C68.75 20.2411 54.7589 6.25 37.5 6.25C20.2411 6.25 6.25 20.2411 6.25 37.5C6.25 54.7589 20.2411 68.75 37.5 68.75Z" stroke="#34495D" stroke-width="1.5" stroke-linecap="round" stroke-linejoin="round"/>
</g>
<path id="Vector_2" d="M28.4375 37.4999V32.8749C28.4375 26.9062 32.6563 24.4999 37.8125 27.4687L41.8125 29.7812L45.8125 32.0937C50.9688 35.0624 50.9688 39.9374 45.8125 42.9062L41.8125 45.2187L37.8125 47.5312C32.6563 50.4999 28.4375 48.0624 28.4375 42.1249V37.4999Z" fill="#3EB87F" stroke="#34495D" stroke-width="1.5" stroke-miterlimit="10" stroke-linecap="round" stroke-linejoin="round"/>
</g>
</g>
<defs>
<filter id="filter0_b_1002_7296" x="-2.3" y="-2.3" width="79.6" height="79.6" filterUnits="userSpaceOnUse" color-interpolation-filters="sRGB">
<feFlood flood-opacity="0" result="BackgroundImageFix"/>
<feGaussianBlur in="BackgroundImageFix" stdDeviation="3.9"/>
<feComposite in2="SourceAlpha" operator="in" result="effect1_backgroundBlur_1002_7296"/>
<feBlend mode="normal" in="SourceGraphic" in2="effect1_backgroundBlur_1002_7296" result="shape"/>
</filter>
</defs>
</svg>
