<svg width="16" height="16" viewBox="0 0 16 16" fill="none" xmlns="http://www.w3.org/2000/svg">
<g id="view">
<path id="visibility" d="M8.00182 10.7163C8.75738 10.7163 9.39893 10.4523 9.92649 9.92434C10.4545 9.39679 10.7185 8.75523 10.7185 7.99967C10.7185 7.24412 10.4545 6.60256 9.92649 6.07501C9.39893 5.54701 8.75738 5.28301 8.00182 5.28301C7.24627 5.28301 6.60471 5.54701 6.07716 6.07501C5.54916 6.60256 5.28516 7.24412 5.28516 7.99967C5.28516 8.75523 5.54916 9.39679 6.07716 9.92434C6.60471 10.4523 7.24627 10.7163 8.00182 10.7163ZM8.00182 9.79967C7.50182 9.79967 7.07693 9.62456 6.72716 9.27434C6.37693 8.92456 6.20182 8.49967 6.20182 7.99967C6.20182 7.49967 6.37693 7.07456 6.72716 6.72434C7.07693 6.37456 7.50182 6.19967 8.00182 6.19967C8.50182 6.19967 8.92693 6.37456 9.27716 6.72434C9.62693 7.07456 9.80182 7.49967 9.80182 7.99967C9.80182 8.49967 9.62693 8.92456 9.27716 9.27434C8.92693 9.62456 8.50182 9.79967 8.00182 9.79967ZM8.00182 12.6663C6.46849 12.6663 5.07138 12.2441 3.81049 11.3997C2.54916 10.5552 1.62405 9.4219 1.03516 7.99967C1.62405 6.57745 2.54916 5.44412 3.81049 4.59967C5.07138 3.75523 6.46849 3.33301 8.00182 3.33301C9.53516 3.33301 10.9325 3.75523 12.1938 4.59967C13.4547 5.44412 14.3796 6.57745 14.9685 7.99967C14.3796 9.4219 13.4547 10.5552 12.1938 11.3997C10.9325 12.2441 9.53516 12.6663 8.00182 12.6663ZM8.00182 11.6663C9.25738 11.6663 10.4103 11.3357 11.4605 10.6743C12.5103 10.0135 13.3129 9.1219 13.8685 7.99967C13.3129 6.87745 12.5103 5.98567 11.4605 5.32434C10.4103 4.66345 9.25738 4.33301 8.00182 4.33301C6.74627 4.33301 5.59338 4.66345 4.54316 5.32434C3.49338 5.98567 2.69071 6.87745 2.13516 7.99967C2.69071 9.1219 3.49338 10.0135 4.54316 10.6743C5.59338 11.3357 6.74627 11.6663 8.00182 11.6663Z" fill="#34495D"/>
</g>
</svg>
