<svg width="116" height="36" viewBox="0 0 116 36" fill="none" xmlns="http://www.w3.org/2000/svg">
<g id="Group">
<path id="Vector" d="M4.99316 35.5H4.99422H110.944C113.414 35.5 115.5 33.4738 115.5 30.9769V5.0171C115.5 2.51843 113.413 0.5 110.944 0.5L4.99422 0.5L4.9939 0.5C3.80188 0.500759 2.6595 0.977511 1.81725 1.82458C0.975119 2.67154 0.501759 3.81949 0.5 5.01637V5.0171L0.499999 30.9769L0.500001 30.9777C0.501754 32.175 0.974825 33.3234 1.81663 34.1713C2.65854 35.0193 3.80072 35.4975 4.99316 35.5Z" stroke="#34495D"/>
<g id="Group 1004">
<path id="Vector_2" fillRule="evenodd" clip-rule="evenodd" d="M26.5835 17.1521C26.5583 14.5028 28.8035 13.2147 28.9053 13.1539C27.635 11.343 25.6649 11.0956 24.9726 11.0759C23.3179 10.9057 21.7128 12.0434 20.8699 12.0434C20.0102 12.0434 18.7122 11.0923 17.3132 11.1203C15.513 11.1474 13.8289 12.1658 12.9052 13.7474C10.999 16.9721 12.4207 21.7109 14.247 24.3183C15.1605 25.5941 16.2281 27.0194 17.6253 26.9685C18.9923 26.9142 19.5029 26.1177 21.1526 26.1177C22.7871 26.1177 23.2666 26.9685 24.6916 26.9372C26.1587 26.9142 27.0823 25.6549 27.9639 24.366C29.0197 22.9037 29.4436 21.4627 29.4605 21.3887C29.426 21.3772 26.6113 20.3283 26.5835 17.1521ZM23.8916 9.36117C24.6268 8.46272 25.1299 7.2404 24.9902 6C23.9261 6.04603 22.5953 6.71925 21.8289 7.59797C21.1509 8.3723 20.5452 9.64147 20.7017 10.835C21.897 10.9221 23.1244 10.2456 23.8916 9.36117ZM43.0941 22.2247L42.1478 19.3682C42.0468 19.0764 41.8601 18.39 41.5833 17.3075H41.5497C41.3818 17.9967 41.2046 18.6836 41.018 19.3682L40.0885 22.2247H43.0941ZM46.3665 26.7868H44.4561L43.4096 23.5728H39.7722L38.7753 26.7868H36.9154L40.5192 15.8468H42.745L46.3665 26.786V26.7868ZM53.8071 22.8091C53.8071 22.0414 53.6304 21.4084 53.2755 20.9103C52.8885 20.3908 52.3669 20.131 51.7141 20.131C51.2717 20.131 50.8696 20.2757 50.5112 20.5609C50.1503 20.8486 49.9148 21.2243 49.8046 21.6896C49.749 21.9066 49.7213 22.0841 49.7213 22.2239V23.5391C49.7213 24.1128 49.9013 24.597 50.2614 24.9924C50.6214 25.3877 51.0891 25.585 51.6645 25.585C52.34 25.585 52.8658 25.3302 53.2418 24.8222C53.6187 24.3134 53.8071 23.6426 53.8071 22.8091ZM55.6342 22.745C55.6342 24.0865 55.2641 25.1469 54.5213 25.9253C53.8567 26.6183 53.0323 26.9643 52.0464 26.9643C50.9831 26.9643 50.2193 26.5912 49.7541 25.8448H49.7204V30H47.927V21.4947C47.927 20.6514 47.9043 19.7858 47.8605 18.898H49.4378L49.5387 20.1483H49.5724C50.1697 19.2063 51.0782 18.7361 52.2954 18.7361C53.2477 18.7361 54.0426 19.1035 54.6786 19.8392C55.3163 20.5757 55.6342 21.5441 55.6342 22.745ZM63.0917 22.8091C63.0917 22.0414 62.915 21.4084 62.5583 20.9103C62.1714 20.3908 61.6523 20.131 60.9987 20.131C60.5545 20.131 60.1541 20.2757 59.7941 20.5609C59.4332 20.8486 59.1993 21.2243 59.0883 21.6896C59.0345 21.9066 59.0058 22.0841 59.0058 22.2239V23.5391C59.0058 24.1128 59.185 24.597 59.5442 24.9924C59.9043 25.3869 60.372 25.585 60.9491 25.585C61.6246 25.585 62.1503 25.3302 62.5264 24.8222C62.9024 24.3134 63.0917 23.6426 63.0917 22.8091ZM64.9188 22.745C64.9188 24.0865 64.547 25.1469 63.805 25.9253C63.1413 26.6183 62.3161 26.9643 61.3301 26.9643C60.2677 26.9643 59.503 26.5912 59.0395 25.8448H59.0058V30H57.2124V21.4947C57.2124 20.6514 57.1897 19.7858 57.1459 18.898H58.7232L58.8241 20.1483H58.8578C59.4551 19.2063 60.3619 18.7361 61.5808 18.7361C62.5323 18.7361 63.3264 19.1035 63.9649 19.8392C64.6 20.5757 64.9188 21.5441 64.9188 22.745ZM75.3003 23.7191C75.3003 24.6488 74.9689 25.4066 74.3051 25.9911C73.5758 26.6298 72.5605 26.9487 71.2557 26.9487C70.0511 26.9487 69.0854 26.7202 68.3543 26.2665L68.7699 24.8058C69.5507 25.2699 70.4486 25.5119 71.3626 25.5045C72.0381 25.5045 72.5638 25.354 72.9415 25.0573C73.3176 24.7606 73.5051 24.3594 73.5051 23.8629C73.5051 23.419 73.3504 23.045 73.0391 22.7417C72.7312 22.4376 72.2155 22.1565 71.4955 21.8951C69.5354 21.1799 68.5562 20.1351 68.5562 18.7583C68.5562 17.8598 68.8995 17.1225 69.5867 16.5471C70.2706 15.9742 71.1851 15.6873 72.3274 15.6873C73.3461 15.6873 74.1924 15.8599 74.8679 16.2052L74.4195 17.6354C73.7886 17.2984 73.0744 17.1316 72.277 17.1316C71.646 17.1316 71.1531 17.2828 70.7998 17.5861C70.6566 17.7099 70.5424 17.8624 70.4651 18.0332C70.3877 18.2039 70.3489 18.389 70.3514 18.5758C70.3514 19.0098 70.5222 19.3666 70.8654 19.6485C71.164 19.9066 71.7066 20.1878 72.494 20.4911C73.4572 20.8708 74.1647 21.3131 74.6198 21.8219C75.0723 22.3283 75.2995 22.962 75.2995 23.7191M81.2292 20.2132H79.2524V24.0429C79.2524 25.017 79.6006 25.5045 80.2997 25.5045C80.6194 25.5045 80.8852 25.4765 81.0955 25.4223L81.1451 26.7531C80.7918 26.8821 80.3266 26.9471 79.7504 26.9471C79.0421 26.9471 78.4885 26.7367 78.0898 26.3141C77.6911 25.8916 77.4909 25.1831 77.4909 24.1876V20.2116H76.3131V18.8964H77.4909V17.4521L79.2524 16.9326V18.8964H81.2292V20.2132ZM88.2871 22.8338C88.2871 22.1055 88.1289 21.4816 87.8076 20.9621C87.4307 20.3324 86.8932 20.0184 86.1966 20.0184C85.4749 20.0184 84.9289 20.3333 84.5529 20.9621C84.2307 21.4824 84.0709 22.117 84.0709 22.8667C84.0709 23.5941 84.2307 24.218 84.5529 24.7367C84.9399 25.3672 85.4808 25.682 86.1798 25.682C86.8663 25.682 87.403 25.3598 87.7908 24.7211C88.1214 24.1901 88.2871 23.5604 88.2871 22.8338ZM90.1496 22.7771C90.1496 23.9887 89.7937 24.985 89.0854 25.7626C88.3418 26.5648 87.3567 26.9635 86.1277 26.9635C84.9424 26.9635 83.9994 26.5805 83.297 25.8127C82.5929 25.0441 82.2412 24.0758 82.2412 22.9078C82.2412 21.6854 82.603 20.6842 83.3298 19.905C84.0549 19.1257 85.0324 18.7377 86.2614 18.7377C87.445 18.7377 88.3981 19.12 89.1174 19.8894C89.8063 20.6349 90.1496 21.5975 90.1496 22.7771ZM95.9784 20.4393C95.7919 20.4061 95.6026 20.3896 95.4131 20.39C94.7822 20.39 94.2943 20.6234 93.951 21.0895C93.6524 21.5005 93.5027 22.02 93.5027 22.6472V26.786H91.7109L91.7277 21.3813C91.7277 20.473 91.7041 19.6452 91.6604 18.8989H93.2217L93.2873 20.4081H93.3378C93.5262 19.8902 93.824 19.4718 94.2337 19.1586C94.608 18.8852 95.0626 18.737 95.53 18.7361C95.6957 18.7361 95.8455 18.7468 95.9784 18.769V20.4393ZM102.289 22.0151C102.301 21.4947 102.184 21.0459 101.941 20.667C101.631 20.1795 101.154 19.9362 100.512 19.9362C99.9254 19.9362 99.4484 20.1746 99.0842 20.6514C98.7855 21.0295 98.608 21.4832 98.5534 22.0134H102.289V22.0142V22.0151ZM103.999 22.4688C104.004 22.7352 103.982 23.0014 103.934 23.2637H98.5534C98.5744 24.0429 98.8343 24.6381 99.334 25.0491C99.7874 25.4173 100.374 25.6015 101.094 25.6015C101.89 25.6015 102.617 25.4782 103.271 25.2283L103.552 26.4448C102.788 26.7704 101.886 26.9315 100.846 26.9315C99.5939 26.9315 98.6114 26.5722 97.8964 25.853C97.183 25.1337 96.8255 24.1679 96.8255 22.9563C96.8255 21.7668 97.1578 20.7763 97.8232 19.9864C98.5197 19.143 99.461 18.7213 100.645 18.7213C101.809 18.7213 102.69 19.143 103.288 19.9872C103.761 20.6563 103.999 21.4841 103.999 22.4696V22.4688ZM41.5715 9.14087C41.5715 8.51368 41.4016 8.03281 41.0618 7.69743C40.7219 7.36288 40.2256 7.19601 39.572 7.19601C39.2943 7.19601 39.058 7.21328 38.862 7.25109V11.2707C38.9705 11.2871 39.169 11.2937 39.4575 11.2937C40.1322 11.2937 40.6521 11.1104 41.0197 10.7438C41.3865 10.3772 41.5715 9.84286 41.5715 9.14087ZM42.5011 9.11703C42.5011 10.0845 42.2041 10.8128 41.6111 11.3019C41.0618 11.754 40.2811 11.9792 39.27 11.9792C38.7686 11.9792 38.3396 11.9579 37.9804 11.9151V6.62965C38.4489 6.55567 38.9537 6.51704 39.4988 6.51704C40.462 6.51704 41.1879 6.72254 41.6775 7.13107C42.226 7.59386 42.5011 8.25557 42.5011 9.11703ZM46.5154 9.98918C46.5154 9.63243 46.4363 9.32582 46.279 9.07018C46.0939 8.76111 45.8306 8.60657 45.4883 8.60657C45.1341 8.60657 44.8649 8.76111 44.6798 9.07018C44.5217 9.325 44.4435 9.63736 44.4435 10.0056C44.4435 10.3632 44.5225 10.6698 44.679 10.9254C44.8708 11.2345 45.1366 11.389 45.4799 11.389C45.8163 11.389 46.0805 11.232 46.2706 10.9172C46.4338 10.6566 46.5146 10.3476 46.5146 9.99M47.4298 9.96205C47.4298 10.558 47.2557 11.0463 46.9074 11.4293C46.5423 11.8231 46.0578 12.0195 45.4546 12.0195C44.8725 12.0195 44.409 11.8305 44.0632 11.4523C43.7183 11.0759 43.5459 10.5999 43.5459 10.0262C43.5459 9.4261 43.7225 8.9329 44.0801 8.55149C44.4367 8.16926 44.9162 7.97774 45.5202 7.97774C46.1024 7.97774 46.5701 8.16598 46.9242 8.54327C47.2607 8.90989 47.429 9.38336 47.429 9.96205M54.0384 8.05747L52.7976 11.9316H51.9901L51.4769 10.2489C51.3485 9.83724 51.2418 9.41939 51.1573 8.99702H51.1413C51.0652 9.42112 50.9587 9.83946 50.8224 10.2489L50.2765 11.9316H49.4605L48.2921 8.05747H49.1981L49.6464 9.89958C49.7558 10.3352 49.8441 10.7504 49.9156 11.1433H49.9324C49.9972 10.8194 50.1057 10.4068 50.2588 9.9078L50.8224 8.05829H51.54L52.0792 9.86834C52.2096 10.3098 52.3156 10.7347 52.3972 11.1441H52.4225C52.4813 10.7454 52.5713 10.3204 52.6916 9.86834L53.172 8.05829H54.0384V8.05747ZM58.6088 11.9316H57.7272V9.71216C57.7272 9.02826 57.4614 8.6863 56.928 8.6863C56.8069 8.68283 56.6866 8.70642 56.5762 8.75528C56.4659 8.80415 56.3684 8.87699 56.2912 8.96825C56.13 9.15334 56.0433 9.38943 56.0473 9.63243V11.9307H55.1648V9.16389C55.1648 8.82358 55.1539 8.4545 55.1329 8.05501H55.9076L55.9497 8.66082H55.9732C56.0759 8.47258 56.229 8.31722 56.43 8.1931C56.6689 8.04843 56.9364 7.97527 57.2292 7.97527C57.5993 7.97527 57.9072 8.092 58.152 8.32627C58.4557 8.61397 58.6088 9.04141 58.6088 9.61023V11.9316Z" fill="#34495D"/>
<path id="Vector_3" fillRule="evenodd" clip-rule="evenodd" d="M60.1582 11.9328H61.039V6.27985H60.1582V11.9328ZM65.314 9.99036C65.314 9.63362 65.235 9.32701 65.0777 9.07137C64.8926 8.76229 64.6301 8.60776 64.2869 8.60776C63.9328 8.60776 63.6636 8.76229 63.4793 9.07137C63.3212 9.32619 63.243 9.63855 63.243 10.0068C63.243 10.3644 63.322 10.671 63.4785 10.9266C63.6703 11.2357 63.9361 11.3902 64.2802 11.3902C64.6158 11.3902 64.8791 11.2332 65.0693 10.9184C65.2333 10.6578 65.3132 10.3488 65.3132 9.99119M66.2293 9.96324C66.2293 10.5592 66.0552 11.0475 65.7069 11.4305C65.3418 11.8243 64.8573 12.0207 64.2541 12.0207C63.6711 12.0207 63.2076 11.8316 62.8627 11.4535C62.5178 11.0771 62.3454 10.6011 62.3454 10.0274C62.3454 9.42729 62.522 8.93409 62.8796 8.55268C63.2362 8.17045 63.7157 7.97892 64.318 7.97892C64.9019 7.97892 65.3687 8.16716 65.7229 8.54446C66.0594 8.91108 66.2293 9.38455 66.2293 9.96324ZM69.5807 10.6011V10.0035C68.6083 9.98708 68.122 10.2477 68.122 10.7844C68.122 10.9866 68.1776 11.1379 68.2911 11.239C68.4094 11.3417 68.5637 11.3958 68.7218 11.3902C68.9153 11.3902 69.0962 11.3302 69.2611 11.211C69.3612 11.1425 69.4427 11.0512 69.4984 10.9449C69.5541 10.8386 69.5824 10.7205 69.5807 10.6011ZM70.496 11.9328H69.7035L69.6379 11.4864H69.6144C69.3435 11.8423 68.9582 12.0207 68.456 12.0207C68.0817 12.0207 67.778 11.9032 67.5509 11.6697C67.4484 11.5647 67.3683 11.4409 67.315 11.3054C67.2618 11.17 67.2364 11.0256 67.2404 10.8806C67.2404 10.4071 67.4423 10.0463 67.8478 9.79637C68.2541 9.54648 68.8245 9.424 69.5589 9.42976V9.35742C69.5589 8.84696 69.2838 8.59214 68.7353 8.59214C68.3441 8.59214 67.9992 8.68831 67.7014 8.87902L67.5223 8.31348C67.8907 8.09072 68.3467 7.97892 68.8825 7.97892C69.9181 7.97892 70.4388 8.51323 70.4388 9.58183V11.0088C70.4388 11.396 70.4581 11.7042 70.496 11.9328ZM74.5927 10.2986V9.65252C74.601 9.50351 74.5744 9.35461 74.5149 9.21716C74.4554 9.0797 74.3647 8.95731 74.2495 8.85929C74.0866 8.71923 73.8759 8.64386 73.659 8.64803C73.3309 8.64803 73.0718 8.77544 72.8834 9.03109C72.6958 9.28591 72.6007 9.61307 72.6007 10.0117C72.6007 10.3948 72.6907 10.7055 72.8716 10.9447C73.0625 11.1995 73.3191 11.3269 73.6421 11.3269C73.9315 11.3269 74.1637 11.2201 74.3387 11.008C74.5078 10.8107 74.5919 10.5748 74.5919 10.2986M75.5054 11.9328H74.7231L74.681 11.3105H74.6575C74.4077 11.784 73.9812 12.0207 73.383 12.0207C72.9061 12.0207 72.5082 11.8374 72.1919 11.47C71.8764 11.1042 71.7208 10.6282 71.7208 10.0438C71.7208 9.41661 71.8907 8.90861 72.2339 8.52062C72.5662 8.15894 72.9742 7.9781 73.4571 7.9781C73.9904 7.9781 74.3631 8.15319 74.5742 8.50418H74.5919V6.27985H75.4752V10.8888C75.4752 11.2661 75.4844 11.6138 75.5054 11.9328ZM82.1317 9.99036C82.1317 9.63362 82.0527 9.32701 81.8962 9.07137C81.7095 8.76229 81.447 8.60776 81.1038 8.60776C80.7505 8.60776 80.4813 8.76229 80.2945 9.07137C80.1372 9.32619 80.059 9.63855 80.059 10.0068C80.059 10.3644 80.1381 10.671 80.2945 10.9266C80.4863 11.2357 80.7521 11.3902 81.0954 11.3902C81.4319 11.3902 81.696 11.2332 81.887 10.9184C82.0493 10.6578 82.1317 10.3488 82.1317 9.99119M83.0453 9.96324C83.0453 10.5592 82.8712 11.0475 82.5238 11.4305C82.1578 11.8243 81.675 12.0207 81.0701 12.0207C80.4897 12.0207 80.0253 11.8316 79.6787 11.4535C79.3338 11.0771 79.1614 10.6011 79.1614 10.0274C79.1614 9.42729 79.3389 8.93409 79.6956 8.55268C80.0522 8.17045 80.5317 7.97892 81.1357 7.97892C81.7179 7.97892 82.1856 8.16716 82.5406 8.54446C82.8771 8.91108 83.0453 9.38455 83.0453 9.96324ZM87.7856 11.9328H86.9048V9.71335C86.9048 9.02944 86.639 8.68749 86.1048 8.68749C85.9838 8.6839 85.8636 8.70744 85.7534 8.75632C85.6431 8.80519 85.5458 8.8781 85.4689 8.96944C85.307 9.15421 85.22 9.39045 85.2241 9.63362V11.9319H84.3408V9.16507C84.3408 8.82476 84.3324 8.45569 84.3105 8.05619H85.0844L85.1257 8.66201H85.15C85.258 8.46987 85.4155 8.30864 85.6068 8.19429C85.8466 8.04962 86.1132 7.97646 86.406 7.97646C86.7761 7.97646 87.084 8.09318 87.3288 8.32745C87.6342 8.61515 87.7856 9.0426 87.7856 9.61142V11.9328ZM93.7187 8.70311H92.748V10.5855C92.748 11.0639 92.9212 11.3031 93.2611 11.3031C93.4209 11.3031 93.5522 11.2899 93.6556 11.262L93.6767 11.9163C93.5034 11.9804 93.2754 12.0125 92.9928 12.0125C92.6453 12.0125 92.3736 11.9089 92.1768 11.7018C91.9816 11.4946 91.8823 11.1461 91.8823 10.657V8.70311H91.3036V8.05784H91.8832V7.34763L92.7471 7.09281V8.05702H93.717V8.70311H93.7187ZM98.3858 11.9328H97.5025V9.72979C97.5025 9.0352 97.2376 8.68749 96.7051 8.68749C96.2962 8.68749 96.0169 8.88888 95.8638 9.29166C95.8386 9.37633 95.8218 9.48072 95.8218 9.60156V11.9319H94.941V6.27985H95.8218V8.61515H95.8395C96.1171 8.19018 96.5141 7.9781 97.0306 7.9781C97.3949 7.9781 97.6977 8.09483 97.9375 8.3291C98.2352 8.62091 98.3858 9.05493 98.3858 9.62868V11.9328ZM102.359 9.58923C102.371 9.35691 102.312 9.12636 102.188 8.92752C102.035 8.68831 101.802 8.5683 101.487 8.5683C101.349 8.56601 101.213 8.59684 101.091 8.65805C100.968 8.71927 100.863 8.80899 100.785 8.9193C100.635 9.11432 100.545 9.34641 100.523 9.58923H102.359ZM103.2 9.81199C103.2 9.96653 103.188 10.0964 103.167 10.2024H100.523C100.535 10.5855 100.661 10.8773 100.906 11.0795C101.13 11.2604 101.418 11.3508 101.772 11.3508C102.163 11.3508 102.52 11.2899 102.841 11.1675L102.979 11.7659C102.603 11.9254 102.16 12.0051 101.648 12.0051C101.034 12.0051 100.55 11.8284 100.2 11.4749C99.8487 11.1214 99.6746 10.6471 99.6746 10.052C99.6746 9.46757 99.8369 8.98095 100.164 8.59296C100.506 8.17867 100.968 7.97153 101.551 7.97153C102.121 7.97153 102.554 8.17867 102.847 8.59296C103.083 8.92176 103.2 9.32865 103.2 9.81199Z" fill="#34495D"/>
</g>
</g>
</svg>
