<svg width="116" height="36" viewBox="0 0 116 36" fill="none" xmlns="http://www.w3.org/2000/svg">
<g id="Group">
<path id="Vector" d="M5.22222 35.5H110.778C113.379 35.5 115.5 33.3605 115.5 30.75V5.25C115.5 2.63945 113.379 0.5 110.778 0.5H5.22222C2.62077 0.5 0.5 2.63945 0.5 5.25V30.75C0.5 33.3605 2.62077 35.5 5.22222 35.5Z" stroke="#34495D"/>
<g id="Group 1003">
<g id="Group 1001">
<g id="Vector_2">
<mask id="path-2-inside-1_969_14679" fill="white">
<path fillRule="evenodd" clip-rule="evenodd" d="M40.6765 9.35457C40.6765 10.0629 40.4667 10.6267 40.0463 11.0477C39.5683 11.5481 38.9465 11.7983 38.1818 11.7983C37.4492 11.7983 36.8257 11.5447 36.3139 11.0376C35.8004 10.5304 35.5449 9.89978 35.5449 9.14916C35.5449 8.39769 35.8004 7.76879 36.3147 7.26077C36.8257 6.75359 37.4492 6.5 38.1818 6.5C38.5455 6.5 38.8932 6.571 39.2231 6.71217C39.5539 6.85418 39.8187 7.04268 40.0183 7.27852L39.5708 7.72483C39.235 7.32416 38.7722 7.12298 38.1818 7.12298C37.6471 7.12298 37.1852 7.31064 36.7952 7.68595C36.4061 8.06211 36.2115 8.549 36.2115 9.14916C36.2115 9.74932 36.4061 10.2362 36.7952 10.6115C36.9772 10.7931 37.1937 10.9365 37.432 11.0332C37.6702 11.1298 37.9255 11.1779 38.1826 11.1745C38.7494 11.1745 39.2206 10.986 39.5996 10.6081C39.8449 10.363 39.987 10.0207 40.0243 9.58111H38.1826V8.97249H40.6418C40.6655 9.10436 40.6773 9.23115 40.6773 9.35457"/>
</mask>
<path fillRule="evenodd" clip-rule="evenodd" d="M40.6765 9.35457C40.6765 10.0629 40.4667 10.6267 40.0463 11.0477C39.5683 11.5481 38.9465 11.7983 38.1818 11.7983C37.4492 11.7983 36.8257 11.5447 36.3139 11.0376C35.8004 10.5304 35.5449 9.89978 35.5449 9.14916C35.5449 8.39769 35.8004 7.76879 36.3147 7.26077C36.8257 6.75359 37.4492 6.5 38.1818 6.5C38.5455 6.5 38.8932 6.571 39.2231 6.71217C39.5539 6.85418 39.8187 7.04268 40.0183 7.27852L39.5708 7.72483C39.235 7.32416 38.7722 7.12298 38.1818 7.12298C37.6471 7.12298 37.1852 7.31064 36.7952 7.68595C36.4061 8.06211 36.2115 8.549 36.2115 9.14916C36.2115 9.74932 36.4061 10.2362 36.7952 10.6115C36.9772 10.7931 37.1937 10.9365 37.432 11.0332C37.6702 11.1298 37.9255 11.1779 38.1826 11.1745C38.7494 11.1745 39.2206 10.986 39.5996 10.6081C39.8449 10.363 39.987 10.0207 40.0243 9.58111H38.1826V8.97249H40.6418C40.6655 9.10436 40.6773 9.23115 40.6773 9.35457" fill="#34495D"/>
<path d="M40.0463 11.0477L39.3387 10.341L39.3308 10.3489L39.3231 10.357L40.0463 11.0477ZM36.3139 11.0376L37.0178 10.3272L37.0166 10.3261L36.3139 11.0376ZM36.3147 7.26077L37.0175 7.97223L37.0192 7.97049L36.3147 7.26077ZM39.2231 6.71217L39.6177 5.79328L39.6165 5.79279L39.2231 6.71217ZM40.0183 7.27852L40.7245 7.98657L41.377 7.33579L40.7816 6.63241L40.0183 7.27852ZM39.5708 7.72483L38.8044 8.36722L39.5049 9.2029L40.277 8.43289L39.5708 7.72483ZM36.7952 7.68595L36.1018 6.96542L36.1002 6.96695L36.7952 7.68595ZM36.7952 10.6115L37.5016 9.9037L37.4956 9.89767L37.4894 9.89174L36.7952 10.6115ZM38.1826 11.1745V10.1744L38.1694 10.1746L38.1826 11.1745ZM39.5996 10.6081L40.3056 11.3163L40.3064 11.3155L39.5996 10.6081ZM40.0243 9.58111L41.0207 9.66549L41.1125 8.58111H40.0243V9.58111ZM38.1826 9.58111H37.1826V10.5811H38.1826V9.58111ZM38.1826 8.97249V7.97249H37.1826V8.97249H38.1826ZM40.6418 8.97249L41.6261 8.7957L41.4782 7.97249H40.6418V8.97249ZM39.6765 9.35457C39.6765 9.85224 39.5367 10.1428 39.3387 10.341L40.7538 11.7544C41.3967 11.1107 41.6765 10.2736 41.6765 9.35457H39.6765ZM39.3231 10.357C39.0548 10.6379 38.7053 10.7983 38.1818 10.7983V12.7983C39.1878 12.7983 40.0818 12.4583 40.7694 11.7384L39.3231 10.357ZM38.1818 10.7983C37.7074 10.7983 37.3385 10.645 37.0178 10.3272L35.61 11.7479C36.3129 12.4444 37.191 12.7983 38.1818 12.7983V10.7983ZM37.0166 10.3261C36.703 10.0164 36.5449 9.64635 36.5449 9.14916H34.5449C34.5449 10.1532 34.8978 11.0444 35.6112 11.749L37.0166 10.3261ZM36.5449 9.14916C36.5449 8.6519 36.7025 8.28333 37.0175 7.97223L35.612 6.5493C34.8983 7.25425 34.5449 8.14348 34.5449 9.14916H36.5449ZM37.0192 7.97049C37.3387 7.65336 37.7072 7.5 38.1818 7.5V5.5C37.1911 5.5 36.3127 5.85382 35.6103 6.55104L37.0192 7.97049ZM38.1818 7.5C38.4117 7.5 38.6255 7.54414 38.8298 7.63155L39.6165 5.79279C39.161 5.59787 38.6793 5.5 38.1818 5.5V7.5ZM38.8286 7.63106C39.0407 7.7221 39.171 7.82526 39.2551 7.92463L40.7816 6.63241C40.4664 6.2601 40.0671 5.98626 39.6177 5.79328L38.8286 7.63106ZM39.3122 6.57047L38.8647 7.01678L40.277 8.43289L40.7245 7.98657L39.3122 6.57047ZM40.3372 7.08245C39.7862 6.42509 39.0265 6.12298 38.1818 6.12298V8.12298C38.518 8.12298 38.6838 8.22323 38.8044 8.36722L40.3372 7.08245ZM38.1818 6.12298C37.3848 6.12298 36.6754 6.41344 36.1018 6.96542L37.4887 8.40648C37.6951 8.20784 37.9095 8.12298 38.1818 8.12298V6.12298ZM36.1002 6.96695C35.4944 7.55257 35.2115 8.30975 35.2115 9.14916H37.2115C37.2115 8.78825 37.3178 8.57165 37.4903 8.40495L36.1002 6.96695ZM35.2115 9.14916C35.2115 9.98833 35.4943 10.7461 36.101 11.3313L37.4894 9.89174C37.3179 9.72632 37.2115 9.51032 37.2115 9.14916H35.2115ZM36.0889 11.3193C36.3653 11.5952 36.6941 11.8129 37.056 11.9598L37.808 10.1065C37.6933 10.06 37.5891 9.99102 37.5016 9.9037L36.0889 11.3193ZM37.056 11.9598C37.4178 12.1066 37.8054 12.1796 38.1959 12.1744L38.1694 10.1746C38.0455 10.1762 37.9227 10.1531 37.808 10.1065L37.056 11.9598ZM38.1826 12.1745C38.9971 12.1745 39.7275 11.8927 40.3056 11.3163L38.8936 9.89997C38.7137 10.0793 38.5017 10.1745 38.1826 10.1745V12.1745ZM40.3064 11.3155C40.7592 10.8631 40.969 10.2765 41.0207 9.66549L39.0278 9.49673C39.0051 9.76484 38.9306 9.86291 38.8928 9.90076L40.3064 11.3155ZM40.0243 8.58111H38.1826V10.5811H40.0243V8.58111ZM39.1826 9.58111V8.97249H37.1826V9.58111H39.1826ZM38.1826 9.97249H40.6418V7.97249H38.1826V9.97249ZM39.6576 9.14929C39.6717 9.22814 39.6773 9.29562 39.6773 9.35457H41.6773C41.6773 9.16669 41.6593 8.98058 41.6261 8.7957L39.6576 9.14929Z" fill="#34495D" mask="url(#path-2-inside-1_969_14679)"/>
</g>
<path id="Vector_3" fillRule="evenodd" clip-rule="evenodd" d="M40.6765 9.35457C40.6765 10.0629 40.4667 10.6267 40.0463 11.0477C39.5683 11.5481 38.9465 11.7983 38.1818 11.7983C37.4492 11.7983 36.8257 11.5447 36.3139 11.0376C35.8004 10.5304 35.5449 9.89978 35.5449 9.14916C35.5449 8.39769 35.8004 7.76879 36.3147 7.26077C36.8257 6.75359 37.4492 6.5 38.1818 6.5C38.5455 6.5 38.8932 6.571 39.2231 6.71217C39.5539 6.85418 39.8187 7.04268 40.0183 7.27852L39.5708 7.72483C39.235 7.32416 38.7722 7.12298 38.1818 7.12298C37.6471 7.12298 37.1852 7.31064 36.7952 7.68595C36.4061 8.06211 36.2115 8.549 36.2115 9.14916C36.2115 9.74932 36.4061 10.2362 36.7952 10.6115C36.9772 10.7931 37.1937 10.9365 37.432 11.0332C37.6702 11.1298 37.9255 11.1779 38.1826 11.1745C38.7494 11.1745 39.2206 10.986 39.5996 10.6081C39.8449 10.363 39.987 10.0207 40.0243 9.58111H38.1826V8.97249H40.6418C40.6655 9.10436 40.6773 9.23115 40.6773 9.35457H40.6765Z" fill="#34495D" stroke="#34495D" stroke-width="0.2"/>
<g id="Vector_4">
<mask id="path-5-inside-2_969_14679" fill="white">
<path fillRule="evenodd" clip-rule="evenodd" d="M44.5767 7.2348H42.2655V8.8434H44.3491V9.45286H42.2655V11.0606H44.5767V11.6836H41.6133V6.61182H44.5767V7.2348Z"/>
</mask>
<path fillRule="evenodd" clip-rule="evenodd" d="M44.5767 7.2348H42.2655V8.8434H44.3491V9.45286H42.2655V11.0606H44.5767V11.6836H41.6133V6.61182H44.5767V7.2348Z" fill="#34495D"/>
<path d="M44.5767 7.2348V8.2348H45.5767V7.2348H44.5767ZM42.2655 7.2348V6.2348H41.2655V7.2348H42.2655ZM42.2655 8.8434H41.2655V9.8434H42.2655V8.8434ZM44.3491 8.8434H45.3491V7.8434H44.3491V8.8434ZM44.3491 9.45286V10.4529H45.3491V9.45286H44.3491ZM42.2655 9.45286V8.45286H41.2655V9.45286H42.2655ZM42.2655 11.0606H41.2655V12.0606H42.2655V11.0606ZM44.5767 11.0606H45.5767V10.0606H44.5767V11.0606ZM44.5767 11.6836V12.6836H45.5767V11.6836H44.5767ZM41.6133 11.6836H40.6133V12.6836H41.6133V11.6836ZM41.6133 6.61182V5.61182H40.6133V6.61182H41.6133ZM44.5767 6.61182H45.5767V5.61182H44.5767V6.61182ZM44.5767 6.2348H42.2655V8.2348H44.5767V6.2348ZM41.2655 7.2348V8.8434H43.2655V7.2348H41.2655ZM42.2655 9.8434H44.3491V7.8434H42.2655V9.8434ZM43.3491 8.8434V9.45286H45.3491V8.8434H43.3491ZM44.3491 8.45286H42.2655V10.4529H44.3491V8.45286ZM41.2655 9.45286V11.0606H43.2655V9.45286H41.2655ZM42.2655 12.0606H44.5767V10.0606H42.2655V12.0606ZM43.5767 11.0606V11.6836H45.5767V11.0606H43.5767ZM44.5767 10.6836H41.6133V12.6836H44.5767V10.6836ZM42.6133 11.6836V6.61182H40.6133V11.6836H42.6133ZM41.6133 7.61182H44.5767V5.61182H41.6133V7.61182ZM43.5767 6.61182V7.2348H45.5767V6.61182H43.5767Z" fill="#34495D" mask="url(#path-5-inside-2_969_14679)"/>
</g>
<path id="Vector_5" fillRule="evenodd" clip-rule="evenodd" d="M44.5767 7.2348H42.2655V8.8434H44.3491V9.45286H42.2655V11.0606H44.5767V11.6836H41.6133V6.61182H44.5767V7.2348Z" fill="#34495D" stroke="#34495D" stroke-width="0.2"/>
<g id="Vector_6">
<mask id="path-8-inside-3_969_14679" fill="white">
<path fillRule="evenodd" clip-rule="evenodd" d="M47.3259 11.6836H46.6737V7.2348H45.2559V6.61182H48.7437V7.2348H47.3259V11.6836Z"/>
</mask>
<path fillRule="evenodd" clip-rule="evenodd" d="M47.3259 11.6836H46.6737V7.2348H45.2559V6.61182H48.7437V7.2348H47.3259V11.6836Z" fill="#34495D"/>
<path d="M47.3259 11.6836V12.6836H48.3259V11.6836H47.3259ZM46.6737 11.6836H45.6737V12.6836H46.6737V11.6836ZM46.6737 7.2348H47.6737V6.2348H46.6737V7.2348ZM45.2559 7.2348H44.2559V8.2348H45.2559V7.2348ZM45.2559 6.61182V5.61182H44.2559V6.61182H45.2559ZM48.7437 6.61182H49.7437V5.61182H48.7437V6.61182ZM48.7437 7.2348V8.2348H49.7437V7.2348H48.7437ZM47.3259 7.2348V6.2348H46.3259V7.2348H47.3259ZM47.3259 10.6836H46.6737V12.6836H47.3259V10.6836ZM47.6737 11.6836V7.2348H45.6737V11.6836H47.6737ZM46.6737 6.2348H45.2559V8.2348H46.6737V6.2348ZM46.2559 7.2348V6.61182H44.2559V7.2348H46.2559ZM45.2559 7.61182H48.7437V5.61182H45.2559V7.61182ZM47.7437 6.61182V7.2348H49.7437V6.61182H47.7437ZM48.7437 6.2348H47.3259V8.2348H48.7437V6.2348ZM46.3259 7.2348V11.6836H48.3259V7.2348H46.3259Z" fill="#34495D" mask="url(#path-8-inside-3_969_14679)"/>
</g>
<path id="Vector_7" fillRule="evenodd" clip-rule="evenodd" d="M47.3259 11.6836H46.6737V7.2348H45.2559V6.61182H48.7437V7.2348H47.3259V11.6836Z" fill="#34495D" stroke="#34495D" stroke-width="0.2"/>
<g id="Vector_8">
<mask id="path-11-inside-4_969_14679" fill="white">
<path fillRule="evenodd" clip-rule="evenodd" d="M51.2676 11.6836H51.9198V6.61182H51.2676V11.6836Z"/>
</mask>
<path fillRule="evenodd" clip-rule="evenodd" d="M51.2676 11.6836H51.9198V6.61182H51.2676V11.6836Z" fill="#34495D"/>
<path d="M51.2676 11.6836H50.2676V12.6836H51.2676V11.6836ZM51.9198 11.6836V12.6836H52.9198V11.6836H51.9198ZM51.9198 6.61182H52.9198V5.61182H51.9198V6.61182ZM51.2676 6.61182V5.61182H50.2676V6.61182H51.2676ZM51.2676 12.6836H51.9198V10.6836H51.2676V12.6836ZM52.9198 11.6836V6.61182H50.9198V11.6836H52.9198ZM51.9198 5.61182H51.2676V7.61182H51.9198V5.61182ZM50.2676 6.61182V11.6836H52.2676V6.61182H50.2676Z" fill="#34495D" mask="url(#path-11-inside-4_969_14679)"/>
</g>
<path id="Vector_9" fillRule="evenodd" clip-rule="evenodd" d="M51.2676 11.6836H51.9198V6.61182H51.2676V11.6836Z" fill="#34495D" stroke="#34495D" stroke-width="0.2"/>
<g id="Vector_10">
<mask id="path-14-inside-5_969_14679" fill="white">
<path fillRule="evenodd" clip-rule="evenodd" d="M54.8131 11.6836H54.1617V7.2348H52.7422V6.61182H56.2301V7.2348H54.8122L54.8131 11.6836Z"/>
</mask>
<path fillRule="evenodd" clip-rule="evenodd" d="M54.8131 11.6836H54.1617V7.2348H52.7422V6.61182H56.2301V7.2348H54.8122L54.8131 11.6836Z" fill="#34495D"/>
<path d="M54.8131 11.6836V12.6836H55.8133L55.8131 11.6834L54.8131 11.6836ZM54.1617 11.6836H53.1617V12.6836H54.1617V11.6836ZM54.1617 7.2348H55.1617V6.2348H54.1617V7.2348ZM52.7422 7.2348H51.7422V8.2348H52.7422V7.2348ZM52.7422 6.61182V5.61182H51.7422V6.61182H52.7422ZM56.2301 6.61182H57.2301V5.61182H56.2301V6.61182ZM56.2301 7.2348V8.2348H57.2301V7.2348H56.2301ZM54.8122 7.2348V6.2348H53.8121L53.8122 7.23499L54.8122 7.2348ZM54.8131 10.6836H54.1617V12.6836H54.8131V10.6836ZM55.1617 11.6836V7.2348H53.1617V11.6836H55.1617ZM54.1617 6.2348H52.7422V8.2348H54.1617V6.2348ZM53.7422 7.2348V6.61182H51.7422V7.2348H53.7422ZM52.7422 7.61182H56.2301V5.61182H52.7422V7.61182ZM55.2301 6.61182V7.2348H57.2301V6.61182H55.2301ZM56.2301 6.2348H54.8122V8.2348H56.2301V6.2348ZM53.8122 7.23499L53.8131 11.6838L55.8131 11.6834L55.8122 7.23461L53.8122 7.23499Z" fill="#34495D" mask="url(#path-14-inside-5_969_14679)"/>
</g>
<path id="Vector_11" fillRule="evenodd" clip-rule="evenodd" d="M54.8131 11.6836H54.1617V7.2348H52.7422V6.61182H56.2301V7.2348H54.8122L54.8131 11.6836Z" fill="#34495D" stroke="#34495D" stroke-width="0.2"/>
<g id="Vector_12">
<mask id="path-17-inside-6_969_14679" fill="white">
<path fillRule="evenodd" clip-rule="evenodd" d="M59.5933 10.6048C59.7714 10.7896 59.9858 10.9357 60.2231 11.0338C60.4604 11.1318 60.7155 11.1797 60.9722 11.1745C61.5145 11.1745 61.9747 10.9851 62.3511 10.6048C62.7259 10.2244 62.9145 9.73918 62.9145 9.14916C62.9145 8.55914 62.7259 8.0731 62.3503 7.69356C62.1722 7.50865 61.9578 7.36251 61.7205 7.26432C61.4832 7.16614 61.2281 7.11802 60.9714 7.12298C60.4274 7.12298 59.9681 7.31318 59.5925 7.69356C59.2177 8.07394 59.0291 8.55914 59.0291 9.14916C59.0291 9.73918 59.2177 10.2244 59.5925 10.6048M62.8325 11.0291C62.3334 11.5422 61.7133 11.7983 60.9714 11.7983C60.2295 11.7983 59.6094 11.5422 59.1111 11.0291C58.612 10.5169 58.3633 9.89049 58.3633 9.14916C58.3633 8.40784 58.612 7.78062 59.1111 7.26837C59.6102 6.75612 60.2295 6.5 60.9722 6.5C61.709 6.5 62.3274 6.75697 62.8291 7.27176C63.3299 7.78739 63.5803 8.41291 63.5803 9.14916C63.5803 9.89049 63.3307 10.5169 62.8325 11.0291Z"/>
</mask>
<path fillRule="evenodd" clip-rule="evenodd" d="M59.5933 10.6048C59.7714 10.7896 59.9858 10.9357 60.2231 11.0338C60.4604 11.1318 60.7155 11.1797 60.9722 11.1745C61.5145 11.1745 61.9747 10.9851 62.3511 10.6048C62.7259 10.2244 62.9145 9.73918 62.9145 9.14916C62.9145 8.55914 62.7259 8.0731 62.3503 7.69356C62.1722 7.50865 61.9578 7.36251 61.7205 7.26432C61.4832 7.16614 61.2281 7.11802 60.9714 7.12298C60.4274 7.12298 59.9681 7.31318 59.5925 7.69356C59.2177 8.07394 59.0291 8.55914 59.0291 9.14916C59.0291 9.73918 59.2177 10.2244 59.5925 10.6048M62.8325 11.0291C62.3334 11.5422 61.7133 11.7983 60.9714 11.7983C60.2295 11.7983 59.6094 11.5422 59.1111 11.0291C58.612 10.5169 58.3633 9.89049 58.3633 9.14916C58.3633 8.40784 58.612 7.78062 59.1111 7.26837C59.6102 6.75612 60.2295 6.5 60.9722 6.5C61.709 6.5 62.3274 6.75697 62.8291 7.27176C63.3299 7.78739 63.5803 8.41291 63.5803 9.14916C63.5803 9.89049 63.3307 10.5169 62.8325 11.0291Z" fill="#34495D"/>
<path d="M60.9722 11.1745V10.1745H60.962L60.9518 10.1747L60.9722 11.1745ZM62.3511 10.6048L63.0619 11.3082L63.0635 11.3066L62.3511 10.6048ZM62.3503 7.69356L61.6299 8.38732L61.6395 8.39697L62.3503 7.69356ZM60.9714 7.12298V8.12298H60.981L60.9907 8.1228L60.9714 7.12298ZM59.5925 7.69356L58.8809 6.99094L58.8801 6.99174L59.5925 7.69356ZM62.8325 11.0291L63.5493 11.7264L63.5493 11.7264L62.8325 11.0291ZM59.1111 11.0291L59.8285 10.3324L59.8273 10.3312L59.1111 11.0291ZM62.8291 7.27176L63.5464 6.57504L63.5453 6.57384L62.8291 7.27176ZM58.873 11.2985C59.1468 11.5827 59.4765 11.8073 59.8413 11.958L60.605 10.1095C60.4951 10.0641 60.3959 9.99655 60.3136 9.91105L58.873 11.2985ZM59.8413 11.958C60.206 12.1087 60.598 12.1823 60.9926 12.1743L60.9518 10.1747C60.8329 10.1771 60.7148 10.1549 60.605 10.1095L59.8413 11.958ZM60.9722 12.1745C61.7759 12.1745 62.4937 11.8823 63.0619 11.3082L61.6404 9.90134C61.4556 10.088 61.2531 10.1745 60.9722 10.1745V12.1745ZM63.0635 11.3066C63.6416 10.7198 63.9145 9.97336 63.9145 9.14916H61.9145C61.9145 9.50499 61.8102 9.72898 61.6388 9.90294L63.0635 11.3066ZM63.9145 9.14916C63.9145 8.32554 63.6419 7.57708 63.0611 6.99015L61.6395 8.39697C61.8099 8.56911 61.9145 8.79275 61.9145 9.14916H63.9145ZM63.0705 6.99987C62.7969 6.71568 62.4674 6.49115 62.1028 6.3403L61.3381 8.18834C61.4482 8.23387 61.5475 8.30161 61.63 8.38725L63.0705 6.99987ZM62.1028 6.3403C61.7383 6.18946 61.3465 6.11554 60.952 6.12317L60.9907 8.1228C61.1098 8.12049 61.2281 8.14281 61.3381 8.18834L62.1028 6.3403ZM60.9714 6.12298C60.165 6.12298 59.4479 6.41672 58.8809 6.99094L60.304 8.39618C60.4882 8.20963 60.6898 8.12298 60.9714 8.12298V6.12298ZM58.8801 6.99174C58.302 7.57855 58.0291 8.32496 58.0291 9.14916H60.0291C60.0291 8.79333 60.1334 8.56934 60.3048 8.39538L58.8801 6.99174ZM58.0291 9.14916C58.0291 9.97336 58.302 10.7198 58.8801 11.3066L60.3048 9.90294C60.1334 9.72898 60.0291 9.50499 60.0291 9.14916H58.0291ZM62.1157 10.3318C61.8126 10.6434 61.4546 10.7983 60.9714 10.7983V12.7983C61.972 12.7983 62.8542 12.441 63.5493 11.7264L62.1157 10.3318ZM60.9714 10.7983C60.488 10.7983 60.1304 10.6434 59.8285 10.3324L58.3937 11.7258C59.0883 12.441 59.9709 12.7983 60.9714 12.7983V10.7983ZM59.8273 10.3312C59.5179 10.0136 59.3633 9.64104 59.3633 9.14916H57.3633C57.3633 10.1399 57.7061 11.0201 58.3949 11.727L59.8273 10.3312ZM59.3633 9.14916C59.3633 8.65694 59.5181 8.2836 59.8273 7.96624L58.3949 6.57051C57.7059 7.27765 57.3633 8.15873 57.3633 9.14916H59.3633ZM59.8273 7.96624C60.1307 7.65487 60.4883 7.5 60.9722 7.5V5.5C59.9707 5.5 59.0897 5.85738 58.3949 6.57051L59.8273 7.96624ZM60.9722 7.5C61.447 7.5 61.8048 7.65347 62.1129 7.96967L63.5453 6.57384C62.8501 5.86047 61.9711 5.5 60.9722 5.5V7.5ZM62.1117 7.96848C62.4266 8.2926 62.5803 8.6662 62.5803 9.14916H64.5803C64.5803 8.15962 64.2332 7.28217 63.5464 6.57504L62.1117 7.96848ZM62.5803 9.14916C62.5803 9.64029 62.4253 10.0135 62.1157 10.3318L63.5493 11.7264C64.2362 11.0202 64.5803 10.1407 64.5803 9.14916H62.5803Z" fill="#34495D" mask="url(#path-17-inside-6_969_14679)"/>
</g>
<path id="Vector_13" fillRule="evenodd" clip-rule="evenodd" d="M59.5933 10.6048C59.7714 10.7896 59.9858 10.9357 60.2231 11.0338C60.4604 11.1318 60.7155 11.1797 60.9722 11.1745C61.5145 11.1745 61.9747 10.9851 62.3511 10.6048C62.7259 10.2244 62.9145 9.73918 62.9145 9.14916C62.9145 8.55914 62.7259 8.0731 62.3503 7.69356C62.1722 7.50865 61.9578 7.36251 61.7205 7.26432C61.4832 7.16614 61.2281 7.11802 60.9714 7.12298C60.4274 7.12298 59.9681 7.31318 59.5925 7.69356C59.2177 8.07394 59.0291 8.55914 59.0291 9.14916C59.0291 9.73918 59.2177 10.2244 59.5925 10.6048H59.5933ZM62.8333 11.0291C62.3342 11.5422 61.7133 11.7983 60.9722 11.7983C60.2295 11.7983 59.6102 11.5422 59.1111 11.0291C58.612 10.5169 58.3633 9.89049 58.3633 9.14916C58.3633 8.40784 58.612 7.78062 59.1111 7.26837C59.6102 6.75612 60.2295 6.5 60.9722 6.5C61.709 6.5 62.3274 6.75697 62.8291 7.27176C63.3299 7.78739 63.5803 8.41291 63.5803 9.14916C63.5803 9.89049 63.3307 10.5169 62.8325 11.0291H62.8333Z" fill="#34495D" stroke="#34495D" stroke-width="0.2"/>
<g id="Vector_14">
<mask id="path-20-inside-7_969_14679" fill="white">
<path fillRule="evenodd" clip-rule="evenodd" d="M64.4961 11.6836V6.61182H65.2896L67.7564 10.5568H67.7852L67.7564 9.57965V6.61266H68.4095V11.6844H67.7285L65.1483 7.54671H65.1196L65.1483 8.52472V11.6836H64.4961Z"/>
</mask>
<path fillRule="evenodd" clip-rule="evenodd" d="M64.4961 11.6836V6.61182H65.2896L67.7564 10.5568H67.7852L67.7564 9.57965V6.61266H68.4095V11.6844H67.7285L65.1483 7.54671H65.1196L65.1483 8.52472V11.6836H64.4961Z" fill="#34495D"/>
<path d="M64.4961 11.6836H63.4961V12.6836H64.4961V11.6836ZM64.4961 6.61182V5.61182H63.4961V6.61182H64.4961ZM65.2896 6.61182L66.1375 6.08163L65.8437 5.61182H65.2896V6.61182ZM67.7564 10.5568L66.9085 11.087L67.2023 11.5568H67.7564V10.5568ZM67.7852 10.5568V11.5568H68.815L68.7847 10.5274L67.7852 10.5568ZM67.7564 9.57965H66.7564V9.59437L66.7568 9.60907L67.7564 9.57965ZM67.7564 6.61266V5.61266H66.7564V6.61266H67.7564ZM68.4095 6.61266H69.4095V5.61266H68.4095V6.61266ZM68.4095 11.6844V12.6844H69.4095V11.6844H68.4095ZM67.7285 11.6844L66.88 12.2136L67.1736 12.6844H67.7285V11.6844ZM65.1483 7.54671L65.9969 7.01759L65.7032 6.54671H65.1483V7.54671ZM65.1196 7.54671V6.54671H64.0897L64.12 7.57611L65.1196 7.54671ZM65.1483 8.52472H66.1483V8.51002L66.1479 8.49532L65.1483 8.52472ZM65.1483 11.6836V12.6836H66.1483V11.6836H65.1483ZM65.4961 11.6836V6.61182H63.4961V11.6836H65.4961ZM64.4961 7.61182H65.2896V5.61182H64.4961V7.61182ZM64.4417 7.142L66.9085 11.087L68.6043 10.0266L66.1375 6.08163L64.4417 7.142ZM67.7564 11.5568H67.7852V9.55682H67.7564V11.5568ZM68.7847 10.5274L68.756 9.55023L66.7568 9.60907L66.7856 10.5862L68.7847 10.5274ZM68.7564 9.57965V6.61266H66.7564V9.57965H68.7564ZM67.7564 7.61266H68.4095V5.61266H67.7564V7.61266ZM67.4095 6.61266V11.6844H69.4095V6.61266H67.4095ZM68.4095 10.6844H67.7285V12.6844H68.4095V10.6844ZM68.577 11.1553L65.9969 7.01759L64.2998 8.07584L66.88 12.2136L68.577 11.1553ZM65.1483 6.54671H65.1196V8.54671H65.1483V6.54671ZM64.12 7.57611L64.1488 8.55412L66.1479 8.49532L66.1191 7.51731L64.12 7.57611ZM64.1483 8.52472V11.6836H66.1483V8.52472H64.1483ZM65.1483 10.6836H64.4961V12.6836H65.1483V10.6836Z" fill="#34495D" mask="url(#path-20-inside-7_969_14679)"/>
</g>
<path id="Vector_15" fillRule="evenodd" clip-rule="evenodd" d="M64.4961 11.6836V6.61182H65.2896L67.7564 10.5568H67.7852L67.7564 9.57965V6.61266H68.4095V11.6844H67.7285L65.1483 7.54671H65.1196L65.1483 8.52472V11.6836H64.4961Z" fill="#34495D" stroke="#34495D" stroke-width="0.2"/>
</g>
<path id="Vector_16" fillRule="evenodd" clip-rule="evenodd" d="M91.0275 26.0546H92.6052V15.4875H91.0275V26.0546ZM105.245 19.2939L103.436 23.8754H103.382L101.504 19.2939H99.8035L102.62 25.697L101.014 29.2591H102.66L107.001 19.2939H105.245ZM96.2927 24.8543C95.7767 24.8543 95.0551 24.5965 95.0551 23.9574C95.0551 23.1417 95.9535 22.8289 96.7293 22.8289C97.4221 22.8289 97.7495 22.9786 98.1708 23.1823C98.1127 23.6407 97.8906 24.0626 97.5453 24.3699C97.2001 24.6773 96.7551 24.8493 96.2927 24.8543ZM96.4839 19.0631C95.341 19.0631 94.1576 19.5661 93.6677 20.681L95.0686 21.2651C95.3681 20.681 95.9256 20.4909 96.511 20.4909C97.3273 20.4909 98.1572 20.9794 98.1708 21.8492V21.9583C97.8848 21.796 97.2724 21.5509 96.5245 21.5509C95.0137 21.5509 93.4766 22.3801 93.4766 23.9295C93.4766 25.3437 94.715 26.2549 96.1024 26.2549C97.1632 26.2549 97.7495 25.779 98.1158 25.2211H98.1708V26.0377H99.6952V21.9862C99.6952 20.1096 98.2926 19.0631 96.4839 19.0631ZM86.7284 20.5805H84.4832V16.9584H86.7284C87.9085 16.9584 88.5785 17.9347 88.5785 18.769C88.5785 19.5881 87.9085 20.5805 86.7284 20.5805ZM86.6878 15.4875H82.9055V26.0546H84.4832V22.0513H86.6878C88.4372 22.0513 90.157 20.7859 90.157 18.769C90.157 16.753 88.4372 15.4875 86.6878 15.4875ZM66.0625 24.8568C64.9721 24.8568 64.0593 23.9439 64.0593 22.6912C64.0593 21.4249 64.9721 20.4985 66.0625 20.4985C67.1385 20.4985 67.9837 21.4249 67.9837 22.6912C67.9837 23.9439 67.1385 24.8568 66.0625 24.8568ZM67.8745 19.8856H67.8204C67.4659 19.4638 66.7841 19.0826 65.9263 19.0826C64.1269 19.0826 62.4773 20.6624 62.4773 22.6912C62.4773 24.7063 64.1269 26.2727 65.9263 26.2727C66.7841 26.2727 67.4659 25.8915 67.8204 25.4561H67.8745V25.9726C67.8745 27.3487 67.1385 28.0833 65.9534 28.0833C64.9856 28.0833 64.3858 27.3893 64.1405 26.8035L62.7641 27.3758C63.1592 28.3293 64.2081 29.5 65.9534 29.5C67.8068 29.5 69.3744 28.4104 69.3744 25.7554V19.2998H67.8745V19.8856ZM70.4648 26.0546H72.0451V15.4875H70.4648V26.0546ZM74.3757 22.5686C74.3351 21.1798 75.4526 20.4714 76.2563 20.4714C76.884 20.4714 77.4152 20.785 77.5929 21.2339L74.3757 22.5686ZM79.2822 21.37C78.9819 20.5669 78.0691 19.0826 76.2021 19.0826C74.3486 19.0826 72.8081 20.5399 72.8081 22.6776C72.8081 24.6928 74.3351 26.2727 76.3789 26.2727C78.0277 26.2727 78.9819 25.2651 79.3778 24.6793L78.1512 23.8619C77.7418 24.4612 77.1834 24.8568 76.3789 24.8568C75.5753 24.8568 75.0026 24.4891 74.6354 23.7672L79.4455 21.7791L79.2822 21.37ZM40.9536 20.1857V21.7106H44.6056C44.4974 22.5686 44.2106 23.195 43.7749 23.6303C43.2428 24.162 42.4112 24.7478 40.9536 24.7478C38.7043 24.7478 36.9464 22.9363 36.9464 20.6895C36.9464 18.4427 38.7043 16.6312 40.9536 16.6312C42.1668 16.6312 43.0525 17.108 43.7064 17.7208L44.7833 16.6448C43.8697 15.7733 42.6574 15.1055 40.9536 15.1055C37.8727 15.1055 35.2832 17.6118 35.2832 20.6895C35.2832 23.7672 37.8727 26.2727 40.9536 26.2727C42.616 26.2727 43.8697 25.7275 44.851 24.7064C45.8594 23.6988 46.1732 22.2829 46.1732 21.1384C46.1732 20.785 46.1461 20.4579 46.0911 20.1857H40.9536ZM50.3252 24.8568C49.2356 24.8568 48.2949 23.9574 48.2949 22.6776C48.2949 21.3835 49.2356 20.4985 50.3252 20.4985C51.4156 20.4985 52.3563 21.3835 52.3563 22.6776C52.3563 23.9574 51.4156 24.8568 50.3252 24.8568ZM50.3252 19.0826C48.3355 19.0826 46.7138 20.594 46.7138 22.6776C46.7138 24.7478 48.3355 26.2727 50.3252 26.2727C52.3157 26.2727 53.9374 24.7478 53.9374 22.6776C53.9374 20.594 52.3157 19.0826 50.3252 19.0826ZM58.2044 24.8568C57.114 24.8568 56.1733 23.9574 56.1733 22.6776C56.1733 21.3835 57.114 20.4985 58.2044 20.4985C59.2948 20.4985 60.2347 21.3835 60.2347 22.6776C60.2347 23.9574 59.2948 24.8568 58.2044 24.8568ZM58.2044 19.0826C56.2147 19.0826 54.593 20.594 54.593 22.6776C54.593 24.7478 56.2147 26.2727 58.2044 26.2727C60.1941 26.2727 61.8158 24.7478 61.8158 22.6776C61.8158 20.594 60.1941 19.0826 58.2044 19.0826Z" fill="#34495D"/>
<g id="Group 1002">
<path id="Vector_17" fillRule="evenodd" clip-rule="evenodd" d="M9.39168 7.06689C9.1455 7.32725 9 7.7313 9 8.25454V26.9491C9 27.4732 9.1455 27.8764 9.39168 28.1368L9.45343 28.1976L19.9348 17.7252V17.4784L9.45343 7.00519L9.39168 7.06689Z" fill="url(#paint0_linear_969_14679)"/>
<path id="Vector_18" fillRule="evenodd" clip-rule="evenodd" d="M19.9355 17.4789V17.7257L23.4285 21.2185L23.508 21.1737L27.6473 18.8238C28.8291 18.1518 28.8291 17.0529 27.6473 16.3817L23.508 14.0318L23.4293 13.987L19.9355 17.4789Z" fill="url(#paint1_linear_969_14679)"/>
<path id="Vector_19" fillRule="evenodd" clip-rule="evenodd" d="M9.39258 28.1372C9.78172 28.5497 10.4255 28.6004 11.1505 28.1887L23.5082 21.1728L19.9357 17.6022L9.39258 28.1372Z" fill="url(#paint2_linear_969_14679)"/>
<path id="Vector_20" fillRule="evenodd" clip-rule="evenodd" d="M9.39258 7.06806L19.9357 17.603L23.5082 14.0325L11.1505 7.01649C10.8104 6.82292 10.4881 6.73163 10.2022 6.73163C9.87731 6.73163 9.59899 6.84912 9.39258 7.06806Z" fill="url(#paint3_linear_969_14679)"/>
</g>
</g>
</g>
<defs>
<linearGradient id="paint0_linear_969_14679" x1="14.4674" y1="7.00519" x2="14.4674" y2="28.1976" gradientUnits="userSpaceOnUse">
<stop stop-color="#00A0FF"/>
<stop offset="0.2657" stop-color="#00B2FF"/>
<stop offset="1" stop-color="#00E3FF"/>
</linearGradient>
<linearGradient id="paint1_linear_969_14679" x1="28.5336" y1="17.6028" x2="19.9355" y2="17.6028" gradientUnits="userSpaceOnUse">
<stop stop-color="#FFE000"/>
<stop offset="1" stop-color="#FF9C00"/>
</linearGradient>
<linearGradient id="paint2_linear_969_14679" x1="16.4504" y1="17.6022" x2="16.4504" y2="28.4732" gradientUnits="userSpaceOnUse">
<stop stop-color="#FF3A44"/>
<stop offset="1" stop-color="#C31162"/>
</linearGradient>
<linearGradient id="paint3_linear_969_14679" x1="16.5574" y1="6.65009" x2="16.5574" y2="17.6302" gradientUnits="userSpaceOnUse">
<stop stop-color="#32A071"/>
<stop offset="1" stop-color="#00F076"/>
</linearGradient>
</defs>
</svg>
