<svg width="30" height="30" viewBox="0 0 30 30" fill="none" xmlns="http://www.w3.org/2000/svg">
<g id="bx:bxl-instagram">
<path id="Vector" d="M14.9987 9.22266C13.4658 9.22266 11.9956 9.83162 10.9117 10.9156C9.82771 11.9995 9.21875 13.4697 9.21875 15.0027C9.21875 16.5356 9.82771 18.0058 10.9117 19.0897C11.9956 20.1737 13.4658 20.7827 14.9987 20.7827C16.5317 20.7827 18.0019 20.1737 19.0858 19.0897C20.1698 18.0058 20.7787 16.5356 20.7787 15.0027C20.7787 13.4697 20.1698 11.9995 19.0858 10.9156C18.0019 9.83162 16.5317 9.22266 14.9987 9.22266ZM14.9987 18.7564C14.0029 18.7564 13.0478 18.3608 12.3436 17.6566C11.6394 16.9524 11.2437 15.9973 11.2437 15.0014C11.2437 14.0055 11.6394 13.0504 12.3436 12.3462C13.0478 11.642 14.0029 11.2464 14.9987 11.2464C15.9946 11.2464 16.9497 11.642 17.6539 12.3462C18.3581 13.0504 18.7537 14.0055 18.7537 15.0014C18.7537 15.9973 18.3581 16.9524 17.6539 17.6566C16.9497 18.3608 15.9946 18.7564 14.9987 18.7564Z" fill="#34495D"/>
<path id="Vector_2" d="M21.0077 10.3552C21.7519 10.3552 22.3552 9.75186 22.3552 9.00766C22.3552 8.26345 21.7519 7.66016 21.0077 7.66016C20.2635 7.66016 19.6602 8.26345 19.6602 9.00766C19.6602 9.75186 20.2635 10.3552 21.0077 10.3552Z" fill="#34495D"/>
<path id="Vector_3" d="M25.6657 7.63836C25.3763 6.89108 24.9341 6.21246 24.3674 5.64593C23.8006 5.0794 23.1218 4.63745 22.3745 4.34836C21.4999 4.02006 20.5759 3.84254 19.642 3.82336C18.4382 3.77086 18.057 3.75586 15.0045 3.75586C11.952 3.75586 11.5607 3.75586 10.367 3.82336C9.43369 3.84156 8.5104 4.01911 7.63695 4.34836C6.88937 4.63711 6.21041 5.07895 5.64362 5.64552C5.07683 6.21209 4.63474 6.89089 4.3457 7.63836C4.01733 8.51287 3.84022 9.4369 3.82195 10.3709C3.7682 11.5734 3.75195 11.9546 3.75195 15.0084C3.75195 18.0609 3.75195 18.4496 3.82195 19.6459C3.8407 20.5809 4.01695 21.5034 4.3457 22.3796C4.63555 23.1268 5.07807 23.8053 5.645 24.3718C6.21192 24.9383 6.89078 25.3803 7.6382 25.6696C8.50999 26.0111 9.43367 26.2013 10.3695 26.2321C11.5732 26.2846 11.9545 26.3008 15.007 26.3008C18.0595 26.3008 18.4507 26.3008 19.6445 26.2321C20.5783 26.2131 21.5022 26.036 22.377 25.7084C23.1241 25.4186 23.8027 24.9762 24.3694 24.4096C24.9361 23.8429 25.3784 23.1643 25.6682 22.4171C25.997 21.5421 26.1732 20.6196 26.192 19.6846C26.2457 18.4821 26.262 18.1009 26.262 15.0471C26.262 11.9934 26.262 11.6059 26.192 10.4096C26.1774 9.46245 25.9994 8.52492 25.6657 7.63836ZM24.1432 19.5534C24.1351 20.2737 24.0037 20.9874 23.7545 21.6634C23.5667 22.1494 23.2794 22.5909 22.9108 22.9592C22.5422 23.3275 22.1006 23.6147 21.6145 23.8021C20.946 24.0502 20.2399 24.1817 19.527 24.1909C18.3395 24.2459 18.0045 24.2596 14.9595 24.2596C11.912 24.2596 11.6007 24.2596 10.3907 24.1909C9.67811 24.1821 8.97236 24.0506 8.30445 23.8021C7.81656 23.6158 7.37321 23.3292 7.00307 22.9608C6.63293 22.5924 6.34425 22.1504 6.1557 21.6634C5.91001 20.9947 5.77859 20.2894 5.76695 19.5771C5.7132 18.3896 5.7007 18.0546 5.7007 15.0096C5.7007 11.9634 5.7007 11.6521 5.76695 10.4409C5.77503 9.72088 5.90652 9.00763 6.1557 8.33211C6.53695 7.34586 7.3182 6.56961 8.30445 6.19211C8.97269 5.94478 9.67823 5.81331 10.3907 5.80336C11.5795 5.74961 11.9132 5.73461 14.9595 5.73461C18.0057 5.73461 18.3182 5.73461 19.527 5.80336C20.24 5.81194 20.9462 5.94345 21.6145 6.19211C22.1006 6.37995 22.5421 6.66736 22.9107 7.0359C23.2792 7.40443 23.5666 7.84595 23.7545 8.33211C24.0001 9.00079 24.1316 9.70606 24.1432 10.4184C24.197 11.6071 24.2107 11.9409 24.2107 14.9871C24.2107 18.0321 24.2107 18.3596 24.157 19.5546H24.1432V19.5534Z" fill="#34495D"/>
</g>
</svg>
