<svg width="30" height="30" viewBox="0 0 30 30" fill="none" xmlns="http://www.w3.org/2000/svg">
<g id="akar-icons:pinterest-fill">
<path id="Vector" d="M3.27148 14.9997C3.27148 20.0066 6.40975 24.2815 10.8264 25.9635C10.7189 25.0478 10.6045 23.5378 10.8508 22.4783C11.0629 21.5674 12.2201 16.6748 12.2201 16.6748C12.2201 16.6748 11.8712 15.976 11.8712 14.941C11.8712 13.3186 12.8114 12.1067 13.9832 12.1067C14.9801 12.1067 15.461 12.8544 15.461 13.7506C15.461 14.7524 14.8228 16.2497 14.4934 17.6385C14.2188 18.8006 15.0769 19.7486 16.2223 19.7486C18.2972 19.7486 19.8932 17.5603 19.8932 14.4015C19.8932 11.6053 17.8838 9.65161 15.0153 9.65161C11.6943 9.65161 9.74445 12.1429 9.74445 14.7182C9.74445 15.7219 10.1305 16.797 10.6133 17.3824C10.6545 17.4266 10.6836 17.4807 10.6978 17.5394C10.712 17.5981 10.7108 17.6595 10.6944 17.7177C10.6055 18.0871 10.4081 18.8797 10.37 19.042C10.3182 19.255 10.2009 19.301 9.97902 19.1974C8.52082 18.5191 7.60993 16.3875 7.60993 14.6752C7.60993 10.9915 10.2849 7.60993 15.3232 7.60993C19.3733 7.60993 22.5213 10.496 22.5213 14.3526C22.5213 18.3764 19.9851 21.6153 16.4627 21.6153C15.2792 21.6153 14.1679 20.9996 13.7868 20.2734C13.7868 20.2734 13.2013 22.5037 13.0596 23.0491C12.784 24.1085 12.0197 25.4494 11.5457 26.2108C12.6384 26.547 13.7975 26.7278 14.9997 26.7278C21.4765 26.7278 26.7278 21.4765 26.7278 14.9997C26.7278 8.52277 21.4765 3.27148 14.9997 3.27148C8.52277 3.27148 3.27148 8.52277 3.27148 14.9997Z" fill="#34495D"/>
</g>
</svg>
