<svg width="24" height="24" viewBox="0 0 24 24" fill="none" xmlns="http://www.w3.org/2000/svg">
<g id="Group 1000014910">
<path id="Star 8" d="M8.28427 2.77125C8.59245 1.8688 9.86879 1.8688 10.177 2.77124L11.4217 6.41634C11.5218 6.70934 11.7519 6.93947 12.0449 7.03952L15.69 8.28428C16.5924 8.59245 16.5924 9.86879 15.69 10.177L12.0449 11.4217C11.7519 11.5218 11.5218 11.7519 11.4217 12.0449L10.177 15.69C9.86879 16.5924 8.59245 16.5924 8.28427 15.69L7.03952 12.0449C6.93947 11.7519 6.70934 11.5218 6.41634 11.4217L2.77124 10.177C1.8688 9.86879 1.8688 8.59245 2.77124 8.28428L6.41634 7.03952C6.70934 6.93947 6.93947 6.70934 7.03952 6.41634L8.28427 2.77125Z" fill="#3EB87F"/>
<path id="Star 9" d="M17.7583 14.7704C17.9123 14.3192 18.5505 14.3192 18.7046 14.7704L19.5032 17.109C19.5532 17.2555 19.6683 17.3706 19.8148 17.4206L22.1534 18.2192C22.6046 18.3733 22.6046 19.0115 22.1534 19.1655L19.8148 19.9641C19.6683 20.0142 19.5532 20.1292 19.5032 20.2757L18.7046 22.6144C18.5505 23.0656 17.9123 23.0656 17.7583 22.6144L16.9597 20.2757C16.9096 20.1292 16.7946 20.0142 16.6481 19.9641L14.3095 19.1655C13.8582 19.0115 13.8582 18.3733 14.3095 18.2192L16.6481 17.4206C16.7946 17.3706 16.9096 17.2555 16.9597 17.109L17.7583 14.7704Z" fill="#3EB87F"/>
</g>
</svg>
