<svg width="28" height="28" viewBox="0 0 28 28" fill="none" xmlns="http://www.w3.org/2000/svg">
<g id="Bed">
<path id="Vector" d="M23.1334 12.8473C24.0158 12.8472 24.8649 13.1772 25.5077 13.7699C26.1504 14.3626 26.5382 15.1733 26.5921 16.0368L26.5984 16.2443V24.2737C26.5984 24.5085 26.5074 24.7344 26.3439 24.9059C26.1805 25.0775 25.9567 25.1818 25.7178 25.1978C25.479 25.2138 25.2428 25.1403 25.0571 24.9921C24.8713 24.844 24.7499 24.6323 24.7173 24.3997L24.7084 24.2737V21.4943H3.28844V24.2737C3.28843 24.4976 3.20573 24.7139 3.05563 24.8826C2.90553 25.0514 2.69819 25.1611 2.47196 25.1915L2.34344 25.2002C2.11508 25.2002 1.89445 25.1191 1.72234 24.972C1.55024 24.8248 1.43831 24.6215 1.40726 24.3997L1.39844 24.2737V16.2443C1.39839 15.3793 1.73497 14.5468 2.33952 13.9167C2.94407 13.2865 3.77104 12.9063 4.65176 12.8534L4.86344 12.8473H23.1334ZM7.38344 4.2002H20.6134C21.4958 4.20015 22.3449 4.53013 22.9877 5.12283C23.6304 5.71552 24.0182 6.52628 24.0721 7.38972L24.0784 7.59725V11.612H20.2984L20.2896 11.4674C20.2564 11.1917 20.1295 10.9349 19.9292 10.7386C19.729 10.5423 19.4671 10.4178 19.1859 10.3853L19.0384 10.3767H16.5184C16.2098 10.3767 15.912 10.4878 15.6813 10.6888C15.4507 10.8899 15.3034 11.1669 15.2673 11.4674L15.2584 11.612H12.7384L12.7296 11.4674C12.6964 11.1917 12.5695 10.9349 12.3692 10.7386C12.169 10.5423 11.9071 10.4178 11.6259 10.3853L11.4784 10.3767H8.95844C8.64982 10.3767 8.35195 10.4878 8.12133 10.6888C7.8907 10.8899 7.74336 11.1669 7.70726 11.4674L7.69844 11.612H3.91844V7.59725C3.91839 6.73219 4.25497 5.8997 4.85952 5.26959C5.46407 4.63948 6.29104 4.25922 7.17176 4.20637L7.38344 4.2002Z" fill="#3EB87F"/>
</g>
</svg>
