<svg width="28" height="28" viewBox="0 0 28 28" fill="none" xmlns="http://www.w3.org/2000/svg">
<g id="fluent:table-resize-row-28-filled">
<path id="Vector" d="M1.16406 5.5415C1.16406 4.38118 1.625 3.26838 2.44547 2.44791C3.26594 1.62744 4.37874 1.1665 5.53906 1.1665H22.4557C23.616 1.1665 24.7288 1.62744 25.5493 2.44791C26.3698 3.26838 26.8307 4.38118 26.8307 5.5415V6.4165H16.7426L15.3542 5.18217C14.9804 4.84973 14.4976 4.66609 13.9974 4.66609C13.4972 4.66609 13.0143 4.84973 12.6406 5.18217L11.2522 6.4165H1.16406V5.5415ZM1.16406 8.1665H9.52673C9.35715 8.52319 9.29466 8.92141 9.34684 9.3129C9.39903 9.70439 9.56364 10.0723 9.82073 10.3722C10.0778 10.672 10.4164 10.8908 10.7953 11.0021C11.1743 11.1134 11.5773 11.1124 11.9557 10.9992V17.0017C11.5775 16.8887 11.1746 16.8877 10.7958 16.999C10.4171 17.1103 10.0787 17.3289 9.82165 17.6286C9.56462 17.9282 9.39996 18.2959 9.34762 18.6872C9.29527 19.0785 9.35749 19.4765 9.52673 19.8332H1.16406V8.1665ZM18.1484 17.6013C18.4149 17.9009 18.5874 18.2722 18.6442 18.6691C18.7011 19.066 18.6398 19.4709 18.4681 19.8332H26.8307V8.1665H18.4681C18.6376 8.52319 18.7001 8.92141 18.6479 9.3129C18.5958 9.70439 18.4311 10.0723 18.1741 10.3722C17.917 10.672 17.5784 10.8908 17.1995 11.0021C16.8205 11.1134 16.4174 11.1124 16.0391 10.9992V17.0017C16.4113 16.8906 16.8074 16.8881 17.1811 16.9943C17.5547 17.1005 17.8903 17.3111 18.1484 17.6013ZM12.6417 22.8175L11.2534 21.5832H1.16406V22.4582C1.16406 23.6185 1.625 24.7313 2.44547 25.5518C3.26594 26.3722 4.37874 26.8332 5.53906 26.8332H22.4557C23.616 26.8332 24.7288 26.3722 25.5493 25.5518C26.3698 24.7313 26.8307 23.6185 26.8307 22.4582V21.5832H16.7426L15.3601 22.8117L15.3577 22.814C14.9901 23.1432 14.5155 23.3279 14.022 23.3337C13.5285 23.3395 13.0497 23.166 12.6744 22.8455L12.6639 22.8385L12.6406 22.8175H12.6417ZM14.8724 8.6565V19.3432L16.0414 18.3048C16.2161 18.1615 16.4396 18.0913 16.6649 18.1091C16.8902 18.1268 17.1 18.231 17.2502 18.3999C17.4003 18.5688 17.4794 18.7893 17.4706 19.0151C17.4619 19.241 17.3662 19.4547 17.2034 19.6115L14.5819 21.9425C14.4245 22.0844 14.2209 22.1642 14.009 22.167C13.7971 22.1698 13.5915 22.0954 13.4304 21.9577L13.4164 21.946L10.7914 19.6127C10.6178 19.4586 10.5125 19.2418 10.4988 19.0101C10.485 18.7784 10.5638 18.5508 10.7179 18.3772C10.872 18.2036 11.0887 18.0983 11.3204 18.0845C11.5521 18.0708 11.7798 18.1496 11.9534 18.3037L13.1224 19.342V8.6565L11.9534 9.69484C11.7786 9.83817 11.5552 9.90833 11.3299 9.8906C11.1046 9.87288 10.8948 9.76865 10.7446 9.59976C10.5944 9.43086 10.5154 9.2104 10.5241 8.98455C10.5329 8.7587 10.6286 8.54499 10.7914 8.38817L13.4164 6.05484C13.5765 5.91264 13.7832 5.8341 13.9974 5.8341C14.2115 5.8341 14.4183 5.91264 14.5784 6.05484L17.2034 8.38817C17.3662 8.54499 17.4619 8.7587 17.4706 8.98455C17.4794 9.2104 17.4003 9.43086 17.2502 9.59976C17.1 9.76865 16.8902 9.87288 16.6649 9.8906C16.4396 9.90833 16.2161 9.83817 16.0414 9.69484L14.8724 8.6565ZM14.0756 23.3332H13.9122H14.0756Z" fill="#3EB87F"/>
</g>
</svg>
