<svg width="128" height="117" viewBox="0 0 128 117" fill="none" xmlns="http://www.w3.org/2000/svg">
<g id="Group 655">
<g id="Subtract">
<mask id="path-1-inside-1_697_18888" fill="white">
<path fillRule="evenodd" clip-rule="evenodd" d="M76.7984 45.6276C76.8296 45.5178 76.7162 45.4246 76.6113 45.4697C73.0348 47.0083 68.8881 45.3563 67.3495 41.7797C66.6323 40.1126 64.6075 38.8275 63.7681 40.4366C62.8217 42.251 62.6692 44.4604 63.5409 46.4868C65.0795 50.0633 69.2262 51.7154 72.8027 50.1768C74.8292 49.305 76.2379 47.5959 76.7984 45.6276Z"/>
</mask>
<path fillRule="evenodd" clip-rule="evenodd" d="M76.7984 45.6276C76.8296 45.5178 76.7162 45.4246 76.6113 45.4697C73.0348 47.0083 68.8881 45.3563 67.3495 41.7797C66.6323 40.1126 64.6075 38.8275 63.7681 40.4366C62.8217 42.251 62.6692 44.4604 63.5409 46.4868C65.0795 50.0633 69.2262 51.7154 72.8027 50.1768C74.8292 49.305 76.2379 47.5959 76.7984 45.6276Z" fill="url(#paint0_radial_697_18888)"/>
<path d="M76.7984 45.6276L75.8366 45.3537L76.7984 45.6276ZM76.2162 44.5511C73.1469 45.8715 69.5885 44.4538 68.2681 41.3845L66.4309 42.1749C68.1878 46.2588 72.9226 48.1452 77.0065 46.3883L76.2162 44.5511ZM64.4595 46.0916C63.7116 44.353 63.8414 42.4584 64.6547 40.8991L62.8815 39.9741C61.802 42.0436 61.6268 44.5678 62.6223 46.8819L64.4595 46.0916ZM72.4076 49.2581C69.3383 50.5785 65.7799 49.1608 64.4595 46.0916L62.6223 46.8819C64.3792 50.9658 69.114 52.8522 73.1979 51.0954L72.4076 49.2581ZM75.8366 45.3537C75.3549 47.0453 74.1462 48.5102 72.4076 49.2581L73.1979 51.0954C75.5122 50.0997 77.1209 48.1465 77.7601 45.9015L75.8366 45.3537ZM68.2681 41.3845C67.8273 40.3599 66.9826 39.4211 66.0291 38.9741C65.5438 38.7466 64.9483 38.6106 64.3385 38.763C63.6968 38.9234 63.2004 39.3628 62.8815 39.9741L64.6547 40.8991C64.7089 40.7954 64.7552 40.7479 64.7782 40.7285C64.7989 40.711 64.8122 40.7062 64.8235 40.7033C64.8517 40.6963 64.9647 40.684 65.1802 40.785C65.6282 40.9951 66.1545 41.5324 66.4309 42.1749L68.2681 41.3845ZM77.0065 46.3883C76.4088 46.6455 75.616 46.1283 75.8366 45.3537L77.7601 45.9015C78.0432 44.9073 77.0237 44.2037 76.2162 44.5511L77.0065 46.3883Z" fill="black" mask="url(#path-1-inside-1_697_18888)"/>
</g>
<g id="Group 650">
<g id="Group 647">
<g id="Ellipse 8" opacity="0.67" filter="url(#filter0_f_697_18888)">
<path d="M56.5446 46.7713C52.294 50.6075 42.319 54.6752 46.1551 58.9258C49.77 62.9313 69.4488 73.9444 79.3459 71.274C80.516 70.9583 81.6407 70.2558 82.0152 69.1032C83.6044 64.2126 76.8242 53.9777 73.4029 50.1867C69.5667 45.9361 60.7952 42.9352 56.5446 46.7713Z" fill="url(#paint1_linear_697_18888)" fill-opacity="0.3"/>
<path d="M56.8796 47.1425C55.7858 48.1296 54.3351 49.1224 52.8669 50.1064C52.7116 50.2105 52.5561 50.3145 52.4007 50.4184C51.0728 51.3064 49.7501 52.191 48.6288 53.0842C47.3654 54.0907 46.4291 55.0545 46.0192 55.9761C45.8196 56.4249 45.7519 56.8485 45.8192 57.2597C45.8867 57.6716 46.0969 58.1151 46.5263 58.5908C47.3796 59.5364 49.2355 60.945 51.7378 62.4955C54.2263 64.0375 57.3138 65.6954 60.5968 67.146C63.8811 68.5972 67.3489 69.8357 70.5996 70.546C73.8596 71.2583 76.8536 71.4286 79.2157 70.7913C80.3128 70.4953 81.2408 69.8684 81.5397 68.9486C81.8925 67.8629 81.7945 66.4196 81.3387 64.749C80.8861 63.0902 80.098 61.2695 79.1458 59.4661C77.2405 55.8576 74.7137 52.3854 73.0317 50.5217C71.1893 48.4802 68.1293 46.713 65.0077 45.9315C61.8719 45.1465 58.8235 45.3881 56.8796 47.1425Z" stroke="black"/>
</g>
<g id="Union">
<mask id="path-5-inside-2_697_18888" fill="white">
<path fillRule="evenodd" clip-rule="evenodd" d="M67.6573 63.3369C67.6573 63.3368 67.6574 63.3367 67.6575 63.3367H71.4703C75.6245 63.3367 78.9922 59.9691 78.9922 55.8148C78.9922 51.6606 75.6245 48.293 71.4703 48.293H71.0582C68.8949 48.293 66.4075 47.3992 65.0262 45.7344C62.9283 43.206 59.7622 41.5957 56.22 41.5957H55.6532C49.6495 41.5957 44.7826 46.4627 44.7826 52.4664C44.7826 58.4701 49.6495 63.337 55.6532 63.337H67.6572C67.6573 63.337 67.6573 63.3369 67.6573 63.3369Z"/>
</mask>
<g filter="url(#filter1_ii_697_18888)">
<path fillRule="evenodd" clip-rule="evenodd" d="M67.6573 63.3369C67.6573 63.3368 67.6574 63.3367 67.6575 63.3367H71.4703C75.6245 63.3367 78.9922 59.9691 78.9922 55.8148C78.9922 51.6606 75.6245 48.293 71.4703 48.293H71.0582C68.8949 48.293 66.4075 47.3992 65.0262 45.7344C62.9283 43.206 59.7622 41.5957 56.22 41.5957H55.6532C49.6495 41.5957 44.7826 46.4627 44.7826 52.4664C44.7826 58.4701 49.6495 63.337 55.6532 63.337H67.6572C67.6573 63.337 67.6573 63.3369 67.6573 63.3369Z" fill="#34495D"/>
</g>
<path d="M71.4703 64.3367H67.6575V62.3367H71.4703V64.3367ZM79.9922 55.8148C79.9922 60.5213 76.1768 64.3367 71.4703 64.3367V62.3367C75.0722 62.3367 77.9922 59.4168 77.9922 55.8148H79.9922ZM71.4703 47.293C76.1768 47.293 79.9922 51.1083 79.9922 55.8148H77.9922C77.9922 52.2129 75.0722 49.293 71.4703 49.293V47.293ZM71.0582 47.293H71.4703V49.293H71.0582V47.293ZM64.2566 46.373C62.3405 44.0637 59.4521 42.5957 56.22 42.5957V40.5957C60.0722 40.5957 63.516 42.3483 65.7958 45.0959L64.2566 46.373ZM56.22 42.5957H55.6532V40.5957H56.22V42.5957ZM55.6532 42.5957C50.2018 42.5957 45.7826 47.0149 45.7826 52.4664H43.7826C43.7826 45.9104 49.0972 40.5957 55.6532 40.5957V42.5957ZM45.7826 52.4664C45.7826 57.9178 50.2018 62.337 55.6532 62.337V64.337C49.0973 64.337 43.7826 59.0223 43.7826 52.4664H45.7826ZM55.6532 62.337H67.6572V64.337H55.6532V62.337ZM67.6572 62.337C67.1033 62.337 66.6573 62.7863 66.6573 63.3369H68.6573C68.6573 63.8876 68.2112 64.337 67.6572 64.337V62.337ZM71.0582 49.293C68.6816 49.293 65.8759 48.3245 64.2566 46.373L65.7958 45.0959C66.9392 46.4739 69.1082 47.293 71.0582 47.293V49.293ZM67.6575 64.3367C68.2101 64.3367 68.6573 63.8886 68.6573 63.3369H66.6573C66.6573 62.7849 67.1047 62.3367 67.6575 62.3367V64.3367Z" fill="black" mask="url(#path-5-inside-2_697_18888)"/>
</g>
</g>
</g>
</g>
<defs>
<filter id="filter0_f_697_18888" x="0.292969" y="0.00585938" width="126.961" height="116.681" filterUnits="userSpaceOnUse" color-interpolation-filters="sRGB">
<feFlood flood-opacity="0" result="BackgroundImageFix"/>
<feBlend mode="normal" in="SourceGraphic" in2="BackgroundImageFix" result="shape"/>
<feGaussianBlur stdDeviation="22.5" result="effect1_foregroundBlur_697_18888"/>
</filter>
<filter id="filter1_ii_697_18888" x="26.7812" y="26.5957" width="60.2109" height="47.7412" filterUnits="userSpaceOnUse" color-interpolation-filters="sRGB">
<feFlood flood-opacity="0" result="BackgroundImageFix"/>
<feBlend mode="normal" in="SourceGraphic" in2="BackgroundImageFix" result="shape"/>
<feColorMatrix in="SourceAlpha" type="matrix" values="0 0 0 0 0 0 0 0 0 0 0 0 0 0 0 0 0 0 127 0" result="hardAlpha"/>
<feOffset dx="8" dy="-15"/>
<feGaussianBlur stdDeviation="15"/>
<feComposite in2="hardAlpha" operator="arithmetic" k2="-1" k3="1"/>
<feColorMatrix type="matrix" values="0 0 0 0 0 0 0 0 0 0 0 0 0 0 0 0 0 0 0.2 0"/>
<feBlend mode="normal" in2="shape" result="effect1_innerShadow_697_18888"/>
<feColorMatrix in="SourceAlpha" type="matrix" values="0 0 0 0 0 0 0 0 0 0 0 0 0 0 0 0 0 0 127 0" result="hardAlpha"/>
<feOffset dx="-18" dy="11"/>
<feGaussianBlur stdDeviation="15"/>
<feComposite in2="hardAlpha" operator="arithmetic" k2="-1" k3="1"/>
<feColorMatrix type="matrix" values="0 0 0 0 1 0 0 0 0 1 0 0 0 0 1 0 0 0 1 0"/>
<feBlend mode="normal" in2="effect1_innerShadow_697_18888" result="effect2_innerShadow_697_18888"/>
</filter>
<radialGradient id="paint0_radial_697_18888" cx="0" cy="0" r="1" gradientUnits="userSpaceOnUse" gradientTransform="translate(70.458 40.3729) rotate(108.166) scale(13.2502 13.2142)">
<stop stop-color="#FFF72C"/>
<stop offset="1" stop-color="#DF7800"/>
</radialGradient>
<linearGradient id="paint1_linear_697_18888" x1="76.533" y1="72.5048" x2="51.8431" y2="44.7962" gradientUnits="userSpaceOnUse">
<stop stop-color="#254659"/>
<stop offset="1" stop-color="#023553"/>
</linearGradient>
</defs>
</svg>
