<svg width="25" height="24" viewBox="0 0 25 24" fill="none" xmlns="http://www.w3.org/2000/svg">
<g id="noun-rain-2438520 1">
<g id="Group">
<path id="Vector" d="M8.40809 9.01014C9.42449 8.59885 9.96823 7.4693 9.55533 6.44889C9.14362 5.43249 6.37974 4 6.37974 4C6.37974 4 5.38772 6.95313 5.79915 7.96926C6.21219 8.98981 7.38874 9.4228 8.40809 9.01V9.01014Z" fill="#3EB87F"/>
<path id="Vector_2" d="M12.6637 15.0294C12.6637 15.0294 11.6434 17.9041 12.0547 18.9202C12.4675 19.9395 13.6412 20.3748 14.6607 19.962C15.68 19.5494 16.2203 18.4202 15.8077 17.4009C15.3963 16.3845 12.6637 15.0293 12.6637 15.0293V15.0294Z" fill="#3EB87F"/>
<path id="Vector_3" d="M6.28 13.8799C6.28 13.8799 5.16064 16.9763 5.60379 18.071C6.04802 19.1684 7.33747 19.6477 8.43502 19.2032C9.52962 18.76 10.0427 17.5514 9.59833 16.4538C9.15488 15.3593 6.28 13.88 6.28 13.88V13.8799Z" fill="#3EB87F"/>
<path id="Vector_4" d="M12.6412 12.9417C13.2661 12.6887 13.5144 11.952 13.2926 11.4042C13.0384 10.7762 11.4372 9.96777 11.4372 9.96777C11.4372 9.96777 10.8486 11.6628 11.1028 12.291C11.3246 12.8386 12.0144 13.1955 12.6412 12.9417H12.6412Z" fill="#3EB87F"/>
<path id="Vector_5" d="M18.777 12.6815C18.5228 12.0535 16.9216 11.2451 16.9216 11.2451C16.9216 11.2451 16.3329 12.9401 16.5871 13.5684C16.8089 14.116 17.4989 14.473 18.1255 14.2193C18.7506 13.966 18.999 13.2293 18.777 12.6815L18.777 12.6815Z" fill="#3EB87F"/>
<path id="Vector_6" d="M17.5513 6.63625C17.1399 5.61999 14.3758 4.1875 14.3758 4.1875C14.3758 4.1875 13.3838 7.14062 13.7952 8.15675C14.2084 9.17729 15.385 9.61001 16.4042 9.19738C17.4203 8.78623 17.9644 7.65693 17.5513 6.63614V6.63625Z" fill="#3EB87F"/>
<path id="Vector_7" d="M20.3004 18.7411C20.0462 18.1131 18.445 17.3047 18.445 17.3047C18.445 17.3047 17.8564 18.9997 18.1106 19.628C18.3324 20.1756 19.0222 20.5325 19.649 20.2786C20.2738 20.0256 20.5222 19.2889 20.3004 18.7411H20.3004Z" fill="#3EB87F"/>
</g>
</g>
</svg>
