<svg width="28" height="28" viewBox="0 0 28 28" fill="none" xmlns="http://www.w3.org/2000/svg">
<g id="fluent:table-resize-column-20-filled">
<path id="Vector" d="M21.3307 1.1665C22.7894 1.1665 24.1884 1.74597 25.2198 2.77742C26.2513 3.80887 26.8307 5.20781 26.8307 6.6665V21.3332C26.8307 22.7919 26.2513 24.1908 25.2198 25.2223C24.1884 26.2537 22.7894 26.8332 21.3307 26.8332V18.7995L21.4407 18.695L24.1907 15.945C24.4463 15.6896 24.649 15.3864 24.7873 15.0526C24.9256 14.7189 24.9968 14.3611 24.9968 13.9998C24.9968 13.6386 24.9256 13.2808 24.7873 12.947C24.649 12.6133 24.4463 12.3101 24.1907 12.0547L21.4407 9.30467C21.405 9.26889 21.3683 9.23405 21.3307 9.20017V1.1665ZM19.4974 1.1665V8.49984C18.7934 8.49984 18.0894 8.7675 17.5541 9.3065C17.0151 9.84184 16.7474 10.5458 16.7474 11.2498H11.2474C11.2474 10.5458 10.9797 9.84184 10.4407 9.3065C10.1859 9.05066 9.88305 8.84769 9.54955 8.70926C9.21605 8.57082 8.85849 8.49965 8.4974 8.49984V1.1665H19.4974ZM10.4407 18.6932C9.9054 19.2322 9.2014 19.4998 8.4974 19.4998V26.8332H19.4974V19.4998C18.7934 19.4998 18.0894 19.2322 17.5541 18.6932C17.2983 18.4383 17.0954 18.1354 16.957 17.8019C16.8185 17.4684 16.7473 17.1109 16.7474 16.7498H11.2474C11.2474 17.4538 10.9797 18.1578 10.4407 18.6932ZM6.66406 26.8332V18.7995C6.62647 18.7657 6.58979 18.7308 6.55406 18.695L3.80406 15.945C3.54851 15.6896 3.34579 15.3864 3.20748 15.0526C3.06917 14.7189 2.99798 14.3611 2.99798 13.9998C2.99798 13.6386 3.06917 13.2808 3.20748 12.947C3.34579 12.6133 3.54851 12.3101 3.80406 12.0547L6.55406 9.30467L6.66406 9.20017V1.1665C5.20537 1.1665 3.80643 1.74597 2.77498 2.77742C1.74353 3.80887 1.16406 5.20781 1.16406 6.6665V21.3332C1.16406 22.7919 1.74353 24.1908 2.77498 25.2223C3.80643 26.2537 5.20537 26.8332 6.66406 26.8332ZM9.1464 10.6008C9.23176 10.686 9.29949 10.7871 9.3457 10.8985C9.39191 11.0099 9.4157 11.1293 9.4157 11.2498C9.4157 11.3704 9.39191 11.4898 9.3457 11.6012C9.29949 11.7125 9.23176 11.8137 9.1464 11.8988L7.96023 13.0832H20.0346L18.8484 11.8988C18.6763 11.7267 18.5796 11.4933 18.5796 11.2498C18.5796 11.0064 18.6763 10.773 18.8484 10.6008C19.0205 10.4287 19.254 10.332 19.4974 10.332C19.7408 10.332 19.9743 10.4287 20.1464 10.6008L22.8964 13.3508C22.9818 13.436 23.0495 13.5371 23.0957 13.6485C23.1419 13.7599 23.1657 13.8793 23.1657 13.9998C23.1657 14.1204 23.1419 14.2398 23.0957 14.3512C23.0495 14.4625 22.9818 14.5637 22.8964 14.6488L20.1464 17.3988C19.9743 17.571 19.7408 17.6677 19.4974 17.6677C19.254 17.6677 19.0205 17.571 18.8484 17.3988C18.6763 17.2267 18.5796 16.9933 18.5796 16.7498C18.5796 16.5064 18.6763 16.273 18.8484 16.1008L20.0346 14.9165H7.96023L9.1464 16.1008C9.31852 16.273 9.41522 16.5064 9.41522 16.7498C9.41522 16.9933 9.31852 17.2267 9.1464 17.3988C8.97427 17.571 8.74082 17.6677 8.4974 17.6677C8.25397 17.6677 8.02052 17.571 7.84839 17.3988L5.0984 14.6488C5.01303 14.5637 4.9453 14.4625 4.89909 14.3512C4.85288 14.2398 4.82909 14.1204 4.82909 13.9998C4.82909 13.8793 4.85288 13.7599 4.89909 13.6485C4.9453 13.5371 5.01303 13.436 5.0984 13.3508L7.84839 10.6008C7.93355 10.5155 8.0347 10.4477 8.14607 10.4015C8.25743 10.3553 8.37682 10.3315 8.4974 10.3315C8.61797 10.3315 8.73736 10.3553 8.84872 10.4015C8.96009 10.4477 9.06124 10.5155 9.1464 10.6008Z" fill="#3EB87F"/>
</g>
</svg>
