<svg width="24" height="24" viewBox="0 0 24 24" fill="none" xmlns="http://www.w3.org/2000/svg">
<g id="fa:street-view" clip-path="url(#clip0_697_18991)">
<path id="Vector" d="M7.89624 30.0955C7.85987 29.8591 7.74169 29.6705 7.54169 29.5295C7.34169 29.3886 7.12351 29.3409 6.88715 29.3864C6.24169 29.4955 5.64624 29.6295 5.10078 29.7886C4.55533 29.9477 4.01896 30.15 3.49169 30.3955C2.96442 30.6409 2.55078 30.9432 2.25078 31.3023C1.95078 31.6614 1.80078 32.0636 1.80078 32.5091C1.80078 33.0818 2.08033 33.5977 2.63942 34.0568C3.19851 34.5159 3.94396 34.8841 4.87578 35.1614C5.8076 35.4386 6.83033 35.6477 7.94396 35.7886C9.0576 35.9295 10.2099 36 11.4008 36C12.5917 36 13.744 35.9295 14.8576 35.7886C15.9712 35.6477 16.994 35.4386 17.9258 35.1614C18.8576 34.8841 19.6031 34.5159 20.1621 34.0568C20.7212 33.5977 21.0008 33.0818 21.0008 32.5091C21.0008 32.0636 20.8508 31.6614 20.5508 31.3023C20.2508 30.9432 19.8371 30.6409 19.3099 30.3955C18.7826 30.15 18.2462 29.9477 17.7008 29.7886C17.1553 29.6295 16.5599 29.4955 15.9144 29.3864L7.89624 30.0955ZM7.89624 30.0955C7.94169 30.3318 7.89396 30.55 7.75306 30.75C7.61215 30.95 7.42351 31.0682 7.18715 31.1045L7.89624 30.0955ZM6.90381 29.485L6.90382 29.485L6.90603 29.4846C7.11523 29.4443 7.30589 29.4857 7.4841 29.6113C7.66245 29.737 7.76528 29.9018 7.7974 30.1107L7.79733 30.1107L7.79804 30.1143C7.83827 30.3235 7.79686 30.5142 7.67131 30.6924C7.54565 30.8708 7.38075 30.9736 7.17194 31.0057L7.17194 31.0057L7.17016 31.006C6.64007 31.0974 6.15483 31.2049 5.71462 31.3287C5.27636 31.452 4.9242 31.5692 4.6597 31.6806C4.39801 31.7908 4.17365 31.8993 3.9873 32.0065C3.8042 32.1118 3.66814 32.2065 3.58919 32.2907C3.55334 32.3289 3.52333 32.3644 3.50043 32.3967C3.47866 32.4275 3.45827 32.4623 3.44922 32.4985L3.44288 32.5238L3.44976 32.549C3.47019 32.6239 3.52209 32.6941 3.58869 32.7594C3.65665 32.8261 3.74796 32.8956 3.86017 32.9681C4.08805 33.1153 4.42842 33.2683 4.87624 33.4283C5.32619 33.589 5.84824 33.7377 6.44193 33.8747C7.03813 34.0123 7.772 34.1265 8.64264 34.2176C9.51462 34.3089 10.434 34.3545 11.4008 34.3545C12.3675 34.3545 13.2869 34.3089 14.1589 34.2176C15.0296 34.1265 15.7634 34.0123 16.3596 33.8747C16.9536 33.7377 17.4759 33.5865 17.9262 33.4211C18.3739 33.2567 18.7139 33.1014 18.9414 32.9545C19.054 32.8817 19.1458 32.8107 19.2142 32.7411C19.2817 32.6723 19.3326 32.5986 19.3523 32.5197L19.3584 32.4955L19.3523 32.4712C19.3429 32.4335 19.3214 32.399 19.2987 32.3695C19.2749 32.3388 19.244 32.3063 19.2077 32.2723C19.1311 32.2009 18.9981 32.1099 18.8159 32.0006C18.6284 31.8881 18.403 31.7791 18.1405 31.6732C17.8766 31.5667 17.525 31.4519 17.087 31.3287C16.6467 31.2049 16.1615 31.0974 15.6314 31.006L15.6296 31.0057C15.4208 30.9736 15.2559 30.8708 15.1303 30.6924C15.0047 30.5142 14.9633 30.3235 15.0035 30.1143L15.0036 30.1144L15.0042 30.1107C15.0363 29.9018 15.1391 29.737 15.3175 29.6113C15.4957 29.4857 15.6863 29.4443 15.8955 29.4846L15.8978 29.485C16.5399 29.5935 17.1316 29.7268 17.6728 29.8846C18.2133 30.0423 18.7449 30.2427 19.2677 30.4861C19.7848 30.7268 20.1855 31.021 20.474 31.3664C20.7598 31.7085 20.9008 32.0883 20.9008 32.5091C20.9008 33.0443 20.6413 33.534 20.0987 33.9795C19.5528 34.4278 18.8205 34.7908 17.8973 35.0655C16.9714 35.341 15.9541 35.5491 14.845 35.6894C13.7358 35.8298 12.5877 35.9 11.4008 35.9C10.2138 35.9 9.06575 35.8298 7.95652 35.6894C6.84748 35.5491 5.83017 35.341 4.9043 35.0655C3.98111 34.7908 3.24879 34.4278 2.70288 33.9795C2.1603 33.534 1.90078 33.0443 1.90078 32.5091C1.90078 32.0883 2.04173 31.7085 2.32752 31.3664C2.6161 31.021 3.01679 30.7268 3.53389 30.4861C4.05668 30.2427 4.5883 30.0423 5.12878 29.8846C5.67 29.7268 6.26162 29.5935 6.90381 29.485ZM14.019 26.3H13.919V26.4V31.6364C13.919 31.8452 13.8438 32.0246 13.6892 32.1793C13.5345 32.334 13.3551 32.4091 13.1462 32.4091H9.65533C9.44646 32.4091 9.26708 32.334 9.1124 32.1793C8.95773 32.0246 8.8826 31.8452 8.8826 31.6364V26.4V26.3H8.7826H7.90987C7.70101 26.3 7.52162 26.2249 7.36695 26.0702C7.21227 25.9155 7.13715 25.7361 7.13715 25.5273V20.2909C7.13715 19.8356 7.29705 19.4497 7.61922 19.1275C7.94139 18.8054 8.32732 18.6455 8.7826 18.6455H14.019C14.4742 18.6455 14.8602 18.8054 15.1823 19.1275C15.5045 19.4497 15.6644 19.8356 15.6644 20.2909V25.5273C15.6644 25.7361 15.5893 25.9155 15.4346 26.0702C15.2799 26.2249 15.1006 26.3 14.8917 26.3H14.019ZM14.3553 15.0545C14.3553 15.8736 14.0681 16.5686 13.4914 17.1452C12.9148 17.7218 12.2198 18.0091 11.4008 18.0091C10.5817 18.0091 9.88675 17.7218 9.31013 17.1452C8.73351 16.5686 8.44624 15.8736 8.44624 15.0545C8.44624 14.2355 8.73351 13.5405 9.31013 12.9639C9.88675 12.3873 10.5817 12.1 11.4008 12.1C12.2198 12.1 12.9148 12.3873 13.4914 12.9639C14.0681 13.5405 14.3553 14.2355 14.3553 15.0545Z" fill="#FDBF2D" stroke="black" stroke-width="0.2"/>
</g>
<defs>
<clipPath id="clip0_697_18991">
<rect width="24" height="24" fill="white"/>
</clipPath>
</defs>
</svg>
