<svg width="28" height="28" viewBox="0 0 28 28" fill="none" xmlns="http://www.w3.org/2000/svg">
<g id="fluent:home-12-filled">
<path id="Subtract" fillRule="evenodd" clip-rule="evenodd" d="M5.46875 1.1665C4.38144 1.1665 3.5 2.02836 3.5 3.0915V24.9082C3.5 25.9713 4.38144 26.8332 5.46875 26.8332H22.5312C23.6186 26.8332 24.5 25.9713 24.5 24.9082V7.36928C24.5 6.30613 23.6186 5.44428 22.5312 5.44428H12.7837C11.6964 5.44428 10.815 4.58243 10.815 3.51928V3.0915C10.815 2.02836 9.93356 1.1665 8.84625 1.1665H5.46875ZM9.62511 8.03234C9.15395 8.03234 8.77199 8.40581 8.77199 8.8665C8.77199 9.3272 9.15395 9.70067 9.62511 9.70067H13.147V16.1387C13.147 16.5994 13.5289 16.9729 14.0001 16.9729C14.4713 16.9729 14.8532 16.5994 14.8532 16.1387V9.70067H18.3751C18.8463 9.70067 19.2282 9.3272 19.2282 8.8665C19.2282 8.40581 18.8463 8.03234 18.3751 8.03234H14.0001H9.62511ZM9.62511 19.1546C9.15395 19.1546 8.77199 19.5281 8.77199 19.9888C8.77199 20.4494 9.15395 20.8229 9.62511 20.8229H18.3751C18.8463 20.8229 19.2282 20.4494 19.2282 19.9888C19.2282 19.5281 18.8463 19.1546 18.3751 19.1546H9.62511ZM8.77199 22.9832C8.77199 22.5225 9.15395 22.149 9.62511 22.149H18.3751C18.8463 22.149 19.2282 22.5225 19.2282 22.9832C19.2282 23.4439 18.8463 23.8174 18.3751 23.8174H9.62511C9.15395 23.8174 8.77199 23.4439 8.77199 22.9832Z" fill="#3EB87F"/>
</g>
</svg>
