<svg width="28" height="28" viewBox="0 0 28 28" fill="none" xmlns="http://www.w3.org/2000/svg">
<g id="emojione-monotone:building-construction">
<path id="Vector" d="M25.6693 3.73317H23.8744V2.36471C23.8744 1.7055 23.3548 1.1665 22.7212 1.1665H16.9489C16.3171 1.1665 15.7975 1.7055 15.7975 2.36471V3.73317H5.00177L2.33594 8.8665H4.1869V12.2887H3.88716L2.39203 13.9998L3.88716 15.7109H4.21472V16.6298C4.21472 16.8621 4.40273 17.0499 4.63562 17.0499C5.33158 17.0499 5.89786 17.6163 5.89786 18.3123C5.89786 19.0083 5.33158 19.5746 4.63562 19.5746C3.93966 19.5746 3.37337 19.0083 3.37337 18.3123C3.37337 18.08 3.18491 17.8922 2.95248 17.8922C2.71959 17.8922 2.53158 18.08 2.53158 18.3123C2.53248 19.4733 3.47568 20.4165 4.63562 20.4165C5.7951 20.4165 6.73921 19.4733 6.73921 18.3127C6.73921 17.2967 6.01543 16.4463 5.05651 16.2517V15.7109H5.38363L6.87921 13.9998L5.38363 12.2887H5.08434V8.8665H15.7975V11.9461C15.7975 12.5142 16.1838 12.9903 16.6949 13.1126V26.8332H17.8728V24.2665L21.7991 25.5498L17.8728 26.8332H22.977V13.1122C23.4885 12.9903 23.8744 12.5142 23.8744 11.9461V8.8665H25.6693V7.58317H24.7368L25.6693 5.89559V3.73317ZM4.41934 7.58317L5.46754 5.53026L6.601 7.58317H4.41934ZM6.40357 5.0165H8.26709L7.33555 6.70409L6.40357 5.0165ZM8.0701 7.58317L9.00209 5.89559L9.93453 7.58317H8.0701ZM9.73709 5.0165H11.6006L10.6686 6.70409L9.73709 5.0165ZM11.4041 7.58317L12.3356 5.89559L13.2672 7.58317H11.4041ZM13.0706 5.0165H14.9341L14.0026 6.70409L13.0706 5.0165ZM15.7975 7.58317H14.7372L15.6687 5.89559L15.7975 6.12873V7.58317ZM21.7991 24.2665L17.8728 22.9832L21.7991 21.6998V24.2665ZM17.8728 21.6998V19.1332L21.7991 20.4174L17.8728 21.6998ZM21.7991 19.1332L17.8728 17.8498L21.7991 16.5665V19.1332ZM17.8728 16.5665V14.0007L21.7991 15.2832L17.8728 16.5665ZM21.7991 14.0007L19.1808 13.1443H21.7991V14.0007ZM22.4722 6.8337C22.4722 7.24565 22.1688 7.58317 21.7991 7.58317H17.7597C17.39 7.58317 17.0875 7.24565 17.0875 6.8337V3.20187C17.0875 2.78735 17.39 2.44984 17.7597 2.44984H21.7991C22.1688 2.44984 22.4722 2.78735 22.4722 3.20187V6.8337ZM24.0023 6.70409L23.8744 6.47223V5.0165H24.9338L24.0023 6.70409Z" fill="#3EB87F"/>
</g>
</svg>
