<svg width="18" height="18" viewBox="0 0 18 18" fill="none" xmlns="http://www.w3.org/2000/svg">
<g id="li:frown" clip-path="url(#clip0_223_4753)">
<path id="Vector" d="M9 17.25C4.4475 17.25 0.75 13.5525 0.75 9C0.75 4.4475 4.4475 0.75 9 0.75C13.5525 0.75 17.25 4.4475 17.25 9C17.25 13.5525 13.5525 17.25 9 17.25ZM9 2.25C5.28 2.25 2.25 5.28 2.25 9C2.25 12.72 5.28 15.75 9 15.75C12.72 15.75 15.75 12.72 15.75 9C15.75 5.28 12.72 2.25 9 2.25Z" fill="#808191"/>
<path id="Vector_2" d="M11.9992 12.75C11.7742 12.75 11.5492 12.645 11.3992 12.45C11.3767 12.4275 10.4467 11.25 8.9992 11.25C7.5367 11.25 6.6067 12.4425 6.5992 12.45C6.3517 12.78 5.8792 12.84 5.5492 12.5925C5.2192 12.345 5.1517 11.88 5.3992 11.55C5.4517 11.475 6.7717 9.75 8.9992 9.75C11.2267 9.75 12.5467 11.475 12.5992 11.55C12.8467 11.88 12.7792 12.3525 12.4492 12.6C12.3142 12.705 12.1567 12.75 11.9992 12.75Z" fill="#808191"/>
<path id="Vector_3" d="M6.75781 7.5C6.34531 7.5 6.00781 7.1625 6.00781 6.75C6.00781 6.3375 6.33781 6 6.75031 6H6.75781C7.17031 6 7.50781 6.3375 7.50781 6.75C7.50781 7.1625 7.17031 7.5 6.75781 7.5Z" fill="#808191"/>
<path id="Vector_4" d="M11.2578 7.5C10.8453 7.5 10.5078 7.1625 10.5078 6.75C10.5078 6.3375 10.8378 6 11.2503 6H11.2578C11.6703 6 12.0078 6.3375 12.0078 6.75C12.0078 7.1625 11.6703 7.5 11.2578 7.5Z" fill="#808191"/>
</g>
<defs>
<clipPath id="clip0_223_4753">
<rect width="18" height="18" fill="white"/>
</clipPath>
</defs>
</svg>
