<svg width="18" height="18" viewBox="0 0 18 18" fill="none" xmlns="http://www.w3.org/2000/svg">
<g id="li:link" clip-path="url(#clip0_223_4754)">
<path id="Vector (Stroke)" fillRule="evenodd" clip-rule="evenodd" d="M9.58151 2.06301C10.4302 1.2433 11.5669 0.789722 12.7468 0.799975C13.9267 0.810228 15.0554 1.28349 15.8897 2.11782C16.724 2.95216 17.1973 4.08082 17.2075 5.2607C17.2178 6.44059 16.7642 7.5773 15.9445 8.42601L15.9354 8.4353L13.6855 10.6852C13.2293 11.1416 12.6803 11.4945 12.0757 11.72C11.4711 11.9455 10.8251 12.0384 10.1815 11.9923C9.53783 11.9462 8.91164 11.7622 8.34537 11.4529C7.77909 11.1435 7.28598 10.7159 6.89947 10.1992C6.65137 9.86752 6.71912 9.39751 7.05081 9.1494C7.3825 8.9013 7.85251 8.96905 8.10062 9.30074C8.35829 9.64522 8.68703 9.93025 9.06455 10.1365C9.44206 10.3428 9.85952 10.4654 10.2886 10.4961C10.7177 10.5269 11.1484 10.465 11.5514 10.3146C11.9545 10.1643 12.3205 9.92898 12.6246 9.62474L12.6247 9.62464L14.8699 7.37951C15.4136 6.81418 15.7144 6.05828 15.7076 5.27374C15.7008 4.48715 15.3853 3.73471 14.829 3.17848C14.2728 2.62226 13.5204 2.30675 12.7338 2.29992C11.9489 2.2931 11.1927 2.59415 10.6273 3.13838L9.34133 4.41685C9.04758 4.70889 8.57271 4.7075 8.28067 4.41376C7.98863 4.12001 7.99002 3.64514 8.28376 3.3531L9.57376 2.0706L9.58151 2.06301Z" fill="#808191"/>
<path id="Vector (Stroke)_2" fillRule="evenodd" clip-rule="evenodd" d="M5.925 6.27989C6.52958 6.05436 7.1756 5.9615 7.81923 6.00759C8.46285 6.05369 9.08904 6.23766 9.65532 6.54704C10.2216 6.85643 10.7147 7.28398 11.1012 7.80069C11.3493 8.13238 11.2816 8.60239 10.9499 8.8505C10.6182 9.0986 10.1482 9.03085 9.90006 8.69916C9.64239 8.35468 9.31365 8.06965 8.93613 7.86339C8.55862 7.65714 8.14116 7.53449 7.71207 7.50376C7.28299 7.47303 6.85231 7.53494 6.44926 7.68529C6.0462 7.83564 5.6802 8.07092 5.37606 8.37516L3.13083 10.6204C2.58705 11.1857 2.28626 11.9416 2.29308 12.7262C2.29992 13.5128 2.61542 14.2652 3.17165 14.8214C3.72787 15.3776 4.48031 15.6931 5.2669 15.7C6.05143 15.7068 6.80733 15.406 7.37266 14.8622L8.65031 13.5846C8.9432 13.2917 9.41807 13.2917 9.71097 13.5846C10.0039 13.8775 10.0039 14.3524 9.71097 14.6453L8.42847 15.9278L8.41917 15.9369C7.57046 16.7566 6.43375 17.2102 5.25387 17.1999C4.07398 17.1897 2.94532 16.7164 2.11099 15.8821C1.27665 15.0477 0.803392 13.9191 0.793139 12.7392C0.782886 11.5593 1.23646 10.4226 2.05617 9.57389L2.06531 9.56459L4.31521 7.31469C4.31518 7.31472 4.31524 7.31466 4.31521 7.31469C4.77139 6.85837 5.32046 6.5054 5.925 6.27989Z" fill="#808191"/>
</g>
<defs>
<clipPath id="clip0_223_4754">
<rect width="18" height="18" fill="white"/>
</clipPath>
</defs>
</svg>
