<svg width="9" height="9" viewBox="0 0 9 9" fill="none" xmlns="http://www.w3.org/2000/svg">
<g id="Group">
<path id="Vector" d="M8.12909 3.97827V1.67791C8.12909 1.23292 7.96091 0.806129 7.66139 0.491484C7.36198 0.17673 6.95584 0 6.53228 0H2.46781C2.04426 0 1.63812 0.176739 1.33871 0.491484C1.03918 0.806129 0.871007 1.23292 0.871007 1.67791V3.97827C0.629412 4.01498 0.408362 4.14181 0.248479 4.33557C0.0884953 4.52944 0.00030328 4.77737 0 5.03391V9H0.871009V7.62718L8.12899 7.62707V8.99989H9V5.0338V5.03391C8.9997 4.77737 8.9115 4.52943 8.75152 4.33557C8.59164 4.1418 8.37061 4.01496 8.12899 3.97827H8.12909ZM2.46787 0.91517H6.53234C6.72482 0.91517 6.90952 0.995611 7.0456 1.13862C7.18169 1.28163 7.25814 1.4756 7.25814 1.67788V2.3644C6.83326 2.05115 6.31009 1.92132 5.79682 2.00198C5.28345 2.08263 4.8193 2.36748 4.50016 2.79757C4.18101 2.36748 3.71684 2.08264 3.20349 2.00198C2.69022 1.92133 2.16705 2.05114 1.74218 2.3644V1.67788C1.74218 1.47561 1.81862 1.28163 1.95471 1.13862C2.0908 0.995611 2.27549 0.91517 2.46798 0.91517H2.46787ZM7.24932 3.96601H4.94413C4.99071 3.56847 5.21996 3.22032 5.55764 3.03433C5.89522 2.84844 6.29811 2.84844 6.63581 3.03433C6.97339 3.22033 7.20264 3.56847 7.24922 3.96601H7.24932ZM4.05581 3.96601H1.75062C1.7972 3.56847 2.02645 3.22032 2.36403 3.03433C2.7017 2.84844 3.1046 2.84844 3.4422 3.03433C3.77988 3.22033 4.00912 3.56847 4.05571 3.96601H4.05581ZM0.870852 6.71176V5.03375V5.03385C0.870852 4.94958 0.935857 4.88127 1.01605 4.88127H7.98371C8.02229 4.88127 8.05915 4.89733 8.08639 4.92596C8.11362 4.95458 8.12891 4.99331 8.12891 5.03385V6.71187L0.870852 6.71176Z" fill="#808191"/>
</g>
</svg>
