<svg width="24" height="24" viewBox="0 0 24 24" fill="none" xmlns="http://www.w3.org/2000/svg">
<path d="M16.7502 9.12047L14.9002 7.27047C14.2002 6.57047 13.2402 6.61047 12.7702 7.35047L11.7402 8.98047L15.0302 12.2705L16.6602 11.2405C17.3702 10.8005 17.4102 9.77047 16.7502 9.12047Z" stroke="#292D32" stroke-width="1.5" stroke-linecap="round" stroke-linejoin="round"/>
<path d="M11.7395 8.97773L9.34947 8.83773C8.00947 8.75773 7.54947 9.16773 7.39947 10.4377L6.79947 15.5077C6.66947 16.5777 7.43947 17.3377 8.50947 17.2177L13.5795 16.6177C14.8495 16.4677 15.3095 16.0077 15.1795 14.6677L15.0395 12.2777" stroke="#292D32" stroke-width="1.5" stroke-linecap="round" stroke-linejoin="round"/>
<path d="M7.49023 16.5219L9.34023 14.6719" stroke="#292D32" stroke-width="1.5" stroke-linecap="round" stroke-linejoin="round"/>
<path d="M9 22H15C20 22 22 20 22 15V9C22 4 20 2 15 2H9C4 2 2 4 2 9V15C2 20 4 22 9 22Z" stroke="#292D32" stroke-width="1.5" stroke-linecap="round" stroke-linejoin="round"/>
</svg>
