<svg width="14" height="14" viewBox="0 0 14 14" fill="none" xmlns="http://www.w3.org/2000/svg">
<g id="Group">
<path id="Vector" d="M13.8946 7.03212C13.8946 7.21744 13.8541 7.39433 13.7731 7.56217C13.6918 7.73022 13.5877 7.87776 13.4603 8.00515C13.3325 8.13292 13.1823 8.23698 13.0084 8.31794C12.8347 8.399 12.655 8.43958 12.4698 8.43958C12.2266 8.43958 11.9948 8.3761 11.7748 8.24853C11.5547 8.12127 11.381 7.95323 11.2535 7.74469H7.72683V11.2717C7.93515 11.3994 8.1031 11.5731 8.23067 11.793C8.35794 12.0131 8.42172 12.2447 8.42172 12.4879C8.42172 12.6734 8.38395 12.8502 8.30882 13.018C8.23338 13.186 8.12912 13.3336 7.99603 13.461C7.86264 13.5887 7.71207 13.6928 7.54433 13.7738C7.37629 13.8548 7.19951 13.8954 7.01429 13.8954C6.82886 13.8954 6.65207 13.8549 6.48434 13.7738C6.31629 13.6928 6.16561 13.5887 6.03264 13.461C5.89925 13.3337 5.79509 13.1861 5.71985 13.018C5.64442 12.85 5.60695 12.6734 5.60695 12.4879C5.60695 12.2448 5.67044 12.0131 5.798 11.793C5.92527 11.5731 6.09331 11.3994 6.30185 11.2717L6.30205 7.74443H2.70565C2.57808 7.95296 2.4042 8.12101 2.18434 8.24827C1.96417 8.37584 1.73265 8.43932 1.48936 8.43932C1.30394 8.43932 1.12715 8.39884 0.959418 8.31768C0.79137 8.23672 0.640689 8.13266 0.507721 8.00489C0.374529 7.87763 0.270265 7.72998 0.194932 7.56191C0.119497 7.39417 0.0820312 7.21747 0.0820312 7.03207C0.0820312 6.84705 0.119497 6.66734 0.194932 6.49348C0.270067 6.31971 0.374531 6.16936 0.507721 6.04179C0.640813 5.91432 0.791375 5.81026 0.959418 5.729C1.12716 5.64804 1.30404 5.60736 1.48936 5.60736C1.73254 5.60736 1.96418 5.67104 2.18434 5.79841C2.40422 5.92597 2.578 6.09371 2.70565 6.30225H6.30231L6.30221 2.70585C6.09368 2.57839 5.92562 2.40461 5.79836 2.18444C5.67079 1.96467 5.60731 1.73275 5.60731 1.48946C5.60731 1.30444 5.64478 1.12756 5.72021 0.959518C5.79535 0.791774 5.89961 0.641098 6.033 0.507821C6.16609 0.374729 6.31666 0.270466 6.4847 0.195033C6.65254 0.119898 6.82922 0.0820312 7.01464 0.0820312C7.19987 0.0820312 7.37665 0.119901 7.54469 0.195033C7.71244 0.270368 7.86311 0.374732 7.99639 0.507821C8.12948 0.641214 8.23354 0.791784 8.30918 0.959518C8.38431 1.12757 8.42208 1.30435 8.42208 1.48946C8.42208 1.73264 8.3583 1.96466 8.23103 2.18444C8.10346 2.40462 7.93552 2.57839 7.72718 2.70585V6.30251H11.2542C11.3816 6.09398 11.5553 5.92623 11.7755 5.79866C11.9953 5.6712 12.2272 5.60761 12.4704 5.60761C12.6557 5.60761 12.8354 5.64819 13.009 5.72926C13.1828 5.81032 13.3332 5.91458 13.4609 6.04204C13.5882 6.16961 13.6924 6.31999 13.7737 6.49374C13.8543 6.66721 13.8949 6.847 13.8949 7.03204L13.8946 7.03212Z" fill="#808191"/>
</g>
</svg>
