<svg width="38" height="36" viewBox="0 0 38 36" fill="none" xmlns="http://www.w3.org/2000/svg">
<rect width="38" height="36" rx="18" fill="#C4FFE3"/>
<path fillRule="evenodd" clip-rule="evenodd" d="M17.0717 15.7267H19.8572V17.1142C20.2585 16.3162 21.2875 15.5992 22.8332 15.5992C25.7965 15.5992 26.5 17.1877 26.5 20.1022V25.5H23.5V20.766C23.5 19.1062 23.0987 18.1702 22.0772 18.1702C20.6605 18.1702 20.0717 19.179 20.0717 20.7652V25.5H17.0717V15.7267ZM11.9275 25.3725H14.9275V15.5992H11.9275V25.3725ZM15.3572 12.4125C15.3574 12.664 15.3075 12.9129 15.2105 13.1449C15.1136 13.377 14.9715 13.5874 14.7925 13.764C14.4298 14.1245 13.9389 14.3262 13.4275 14.325C12.917 14.3247 12.4272 14.1234 12.064 13.7648C11.8857 13.5875 11.744 13.3769 11.6473 13.1448C11.5505 12.9128 11.5004 12.6639 11.5 12.4125C11.5 11.9048 11.7025 11.4188 12.0647 11.0603C12.4277 10.7011 12.9177 10.4998 13.4282 10.5C13.9397 10.5 14.4302 10.7018 14.7925 11.0603C15.154 11.4188 15.3572 11.9048 15.3572 12.4125Z" fill="#3EB87F"/>
</svg>
