<svg width="18" height="18" viewBox="0 0 18 18" fill="none" xmlns="http://www.w3.org/2000/svg">
<g id="location 2">
<path id="Union (Stroke)" fillRule="evenodd" clip-rule="evenodd" d="M12.5347 10.3542C13.1561 9.57904 13.5268 8.59791 13.5268 7.52609C13.5268 5.0264 11.5004 3 9.0007 3C6.50101 3 4.47461 5.0264 4.47461 7.52609C4.47461 8.59781 4.84523 9.57886 5.46651 10.354L5.47097 10.3595C5.60251 10.5234 5.72429 10.696 5.85081 10.8637C6.07055 11.155 6.38041 11.5641 6.74044 12.0347C7.41134 12.9115 8.24943 13.9924 9.00123 14.9204C9.75539 13.9904 10.5954 12.9078 11.2676 12.0299C11.6283 11.5588 11.9386 11.1493 12.1587 10.8577C12.2846 10.6909 12.404 10.5172 12.5347 10.3542ZM13.7073 11.2941C13.7073 11.2941 13.706 11.2959 13.7051 11.2971C13.6667 11.3484 13.314 11.8197 12.8029 12.4908C12.0448 13.4865 10.938 14.9221 9.99181 16.0795C9.4742 16.7126 8.52739 16.7123 8.01008 16.079C6.39282 14.0989 4.30118 11.2985 4.30118 11.2985L4.2963 11.2924C3.46929 10.2607 2.97461 8.95118 2.97461 7.52609C2.97461 4.19797 5.67258 1.5 9.0007 1.5C12.3288 1.5 15.0268 4.19797 15.0268 7.52609C15.0268 8.41277 14.8353 9.25473 14.4914 10.0128C14.2833 10.4715 14.0195 10.8994 13.7086 11.288L13.7064 11.2908L13.7051 11.2924H13.7086L13.7073 11.2941Z" fill="#808191"/>
<path id="Oval (Stroke)" fillRule="evenodd" clip-rule="evenodd" d="M9 8.25C9.41421 8.25 9.75 7.91421 9.75 7.5C9.75 7.08579 9.41421 6.75 9 6.75C8.58579 6.75 8.25 7.08579 8.25 7.5C8.25 7.91421 8.58579 8.25 9 8.25ZM11.25 7.5C11.25 8.74264 10.2426 9.75 9 9.75C7.75736 9.75 6.75 8.74264 6.75 7.5C6.75 6.25736 7.75736 5.25 9 5.25C10.2426 5.25 11.25 6.25736 11.25 7.5Z" fill="#808191"/>
</g>
</svg>
