<svg width="38" height="36" viewBox="0 0 38 36" fill="none" xmlns="http://www.w3.org/2000/svg">
<rect width="38" height="36" rx="18" fill="#C4FFE3"/>
<path d="M28 12.4516C27.325 12.7516 26.65 12.9766 25.9 13.0516C26.65 12.6016 27.25 11.8516 27.55 11.0266C26.8 11.4766 26.05 11.7766 25.225 11.9266C24.55 11.1766 23.575 10.7266 22.525 10.7266C20.5 10.7266 18.85 12.3766 18.85 14.4016C18.85 14.7016 18.85 15.0016 18.925 15.2266C15.775 15.0766 13.075 13.5766 11.275 11.3266C10.9 11.9266 10.75 12.5266 10.75 13.2016C10.75 14.4766 11.425 15.6016 12.4 16.2766C11.8 16.2766 11.2 16.1266 10.75 15.8266C10.75 15.8266 10.75 15.8266 10.75 15.9016C10.75 17.7016 12.025 19.2016 13.675 19.5016C13.375 19.5766 13.075 19.6516 12.7 19.6516C12.475 19.6516 12.25 19.6516 12.025 19.5766C12.475 21.0766 13.825 22.1266 15.475 22.1266C14.2 23.1016 12.625 23.7016 10.9 23.7016C10.6 23.7016 10.3 23.7016 10 23.6266C11.65 24.6766 13.6 25.2766 15.625 25.2766C22.45 25.2766 26.125 19.6516 26.125 14.7766C26.125 14.6266 26.125 14.4766 26.125 14.3266C26.875 13.8016 27.475 13.1266 28 12.4516Z" fill="#3EB87F"/>
</svg>
