<svg width="18" height="19" viewBox="0 0 18 19" fill="none" xmlns="http://www.w3.org/2000/svg">
<g id="link" clip-path="url(#clip0_963_22231)">
<path id="Vector" d="M7.5 11.25C7.82209 11.6806 8.23302 12.0369 8.70491 12.2947C9.17681 12.5525 9.69863 12.7058 10.235 12.7442C10.7713 12.7826 11.3097 12.7052 11.8135 12.5173C12.3173 12.3294 12.7748 12.0353 13.155 11.655L15.405 9.40497C16.0881 8.69772 16.4661 7.75046 16.4575 6.76722C16.449 5.78398 16.0546 4.84343 15.3593 4.14815C14.664 3.45287 13.7235 3.05849 12.7403 3.04995C11.757 3.0414 10.8098 3.41938 10.1025 4.10247L8.8125 5.38497" stroke="black" stroke-width="2" stroke-linecap="round" stroke-linejoin="round"/>
<path id="Vector_2" d="M10.5006 9.74992C10.1785 9.31933 9.76762 8.96304 9.29573 8.70522C8.82383 8.4474 8.30201 8.29409 7.76565 8.25567C7.22929 8.21726 6.69095 8.29465 6.18713 8.48259C5.68331 8.67053 5.2258 8.96462 4.84564 9.34492L2.59564 11.5949C1.91255 12.3022 1.53457 13.2494 1.54311 14.2327C1.55165 15.2159 1.94604 16.1565 2.64132 16.8517C3.3366 17.547 4.27715 17.9414 5.26038 17.95C6.24362 17.9585 7.19088 17.5805 7.89814 16.8974L9.18064 15.6149" stroke="black" stroke-width="2" stroke-linecap="round" stroke-linejoin="round"/>
</g>
<defs>
<clipPath id="clip0_963_22231">
<rect width="18" height="18" fill="white" transform="translate(0 0.5)"/>
</clipPath>
</defs>
</svg>
