<svg width="16" height="16" viewBox="0 0 16 16" fill="none" xmlns="http://www.w3.org/2000/svg">
<g id="Group">
<g id="Group_2">
<path id="Vector" d="M10.625 7.25C11.2463 7.25 11.75 6.74632 11.75 6.125C11.75 5.50368 11.2463 5 10.625 5C10.0037 5 9.5 5.50368 9.5 6.125C9.5 6.74632 10.0037 7.25 10.625 7.25Z" fill="#989898"/>
<path id="Vector_2" d="M5.375 7.25C5.99632 7.25 6.5 6.74632 6.5 6.125C6.5 5.50368 5.99632 5 5.375 5C4.75368 5 4.25 5.50368 4.25 6.125C4.25 6.74632 4.75368 7.25 5.375 7.25Z" fill="#989898"/>
<path id="Vector_3" d="M8 12.5C9.71 12.5 11.165 11.255 11.75 9.5H4.25C4.835 11.255 6.29 12.5 8 12.5Z" fill="#989898"/>
<path id="Vector_4" d="M7.9925 0.5C3.8525 0.5 0.5 3.86 0.5 8C0.5 12.14 3.8525 15.5 7.9925 15.5C12.14 15.5 15.5 12.14 15.5 8C15.5 3.86 12.14 0.5 7.9925 0.5ZM8 14C4.685 14 2 11.315 2 8C2 4.685 4.685 2 8 2C11.315 2 14 4.685 14 8C14 11.315 11.315 14 8 14Z" fill="#989898"/>
</g>
</g>
</svg>
