<svg width="20" height="20" viewBox="0 0 20 20" fill="none" xmlns="http://www.w3.org/2000/svg">
<path d="M17.5 4.98307C14.725 4.70807 11.9333 4.56641 9.15 4.56641C7.5 4.56641 5.85 4.64974 4.2 4.81641L2.5 4.98307" stroke="#FF0000" stroke-width="1.5" stroke-linecap="round" stroke-linejoin="round"/>
<path d="M7.08594 4.14297L7.26927 3.0513C7.4026 2.25964 7.5026 1.66797 8.91094 1.66797H11.0943C12.5026 1.66797 12.6109 2.29297 12.7359 3.05964L12.9193 4.14297" stroke="#FF0000" stroke-width="1.5" stroke-linecap="round" stroke-linejoin="round"/>
<path d="M15.7077 7.61621L15.166 16.0079C15.0744 17.3162 14.9993 18.3329 12.6743 18.3329H7.32435C4.99935 18.3329 4.92435 17.3162 4.83268 16.0079L4.29102 7.61621" stroke="#FF0000" stroke-width="1.5" stroke-linecap="round" stroke-linejoin="round"/>
<path d="M8.61133 13.75H11.3863" stroke="#FF0000" stroke-width="1.5" stroke-linecap="round" stroke-linejoin="round"/>
<path d="M7.91406 10.418H12.0807" stroke="#FF0000" stroke-width="1.5" stroke-linecap="round" stroke-linejoin="round"/>
</svg>
