<svg width="16" height="16" viewBox="0 0 16 16" fill="none" xmlns="http://www.w3.org/2000/svg">
<g id="fluent:call-24-filled">
<path id="Vector" d="M4.68803 1.30717L5.45661 1.06637C6.17734 0.840965 6.94736 1.20567 7.25593 1.91828L7.87023 3.33789C8.13738 3.956 7.98881 4.68331 7.50308 5.13552L6.14948 6.39413C6.23306 7.14734 6.49163 7.88865 6.9245 8.61806C7.33556 9.32376 7.88692 9.94146 8.54596 10.4346L10.1717 9.90257C10.7874 9.70167 11.4589 9.93337 11.836 10.4773L12.7168 11.7443C13.156 12.3771 13.0768 13.2493 12.5317 13.7855L11.9482 14.3602C11.3667 14.9321 10.536 15.14 9.76812 14.9048C7.9538 14.3504 6.28734 12.7047 4.76589 9.96767C3.24229 7.22644 2.70442 4.89961 3.153 2.98999C3.34157 2.18638 3.92516 1.54587 4.68803 1.30717Z" fill="#3EB87F"/>
</g>
</svg>
