<svg width="16" height="16" viewBox="0 0 16 16" fill="none" xmlns="http://www.w3.org/2000/svg">
<path d="M15 5.85408V11.8846C15 12.4457 14.7695 12.9837 14.3593 13.3804C13.9491 13.7771 13.3927 14 12.8125 14H3.1875C2.60734 14 2.05094 13.7771 1.6407 13.3804C1.23047 12.9837 1 12.4457 1 11.8846V5.85408L7.77775 9.71085C7.84508 9.74925 7.92183 9.7695 8 9.7695C8.07817 9.7695 8.15492 9.74925 8.22225 9.71085L15 5.85408ZM12.8125 3C13.3508 2.99992 13.8701 3.19174 14.2713 3.53878C14.6725 3.88582 14.9272 4.3637 14.9869 4.881L8 8.85538L1.01313 4.881C1.07276 4.3637 1.32753 3.88582 1.7287 3.53878C2.12986 3.19174 2.64925 2.99992 3.1875 3H12.8125Z" fill="#3EB87F"/>
</svg>
