<svg width="16" height="16" viewBox="0 0 16 16" fill="none" xmlns="http://www.w3.org/2000/svg">
<g id="clarity:world-solid">
<g id="Union">
<path d="M4.52222 8.00001C4.52467 8.72732 4.61576 9.45161 4.79347 10.1569H7.62847V6.00938H4.75409C4.60286 6.66221 4.52508 7.3299 4.52222 8.00001Z" fill="#3EB87F"/>
<path d="M8.37224 6.00938V10.1569H11.2072C11.3923 9.45253 11.4908 8.72821 11.5004 8.00001C11.4989 7.33006 11.4226 6.66238 11.2729 6.00938H8.37224Z" fill="#3EB87F"/>
<path fillRule="evenodd" clip-rule="evenodd" d="M4.11101 2.17971C5.26215 1.41054 6.61553 1 8 1C9.85652 1 11.637 1.7375 12.9497 3.05025C14.2625 4.36301 15 6.14348 15 8C15 9.38447 14.5895 10.7378 13.8203 11.889C13.0511 13.0401 11.9579 13.9373 10.6788 14.4672C9.3997 14.997 7.99224 15.1356 6.63437 14.8655C5.2765 14.5954 4.02922 13.9287 3.05026 12.9497C2.07129 11.9708 1.4046 10.7235 1.13451 9.36563C0.86441 8.00776 1.00303 6.6003 1.53285 5.32121C2.06266 4.04213 2.95987 2.94888 4.11101 2.17971ZM11.7625 10.9356H13.3463C13.4914 10.6854 13.6186 10.4252 13.7269 10.1569H11.9769C12.1404 9.44949 12.224 8.72602 12.2263 8C12.2261 7.32347 12.1542 6.64887 12.0119 5.9875H13.7881C13.6961 5.71603 13.585 5.45141 13.4556 5.19562H11.8063C11.4926 4.16189 11.0091 3.18754 10.3756 2.3125C9.97084 2.15115 9.54988 2.03381 9.12 1.9625C9.98822 2.89573 10.6435 4.0063 11.0406 5.2175H8.37625V1.875H7.63688V5.20437H4.9725C5.37033 3.99123 6.02717 2.87908 6.8975 1.945C6.46693 2.02186 6.04594 2.14507 5.64188 2.3125C5.00469 3.19391 4.51964 4.17583 4.20688 5.2175H2.54C2.41062 5.47328 2.29951 5.7379 2.2075 6.00937H3.99688C3.8575 6.66375 3.78712 7.33094 3.78688 8C3.79154 8.72179 3.87665 9.44081 4.04063 10.1437H2.29063C2.39264 10.416 2.51399 10.6807 2.65375 10.9356H4.26375C4.56111 11.8807 5.00393 12.7737 5.57625 13.5825C5.98907 13.761 6.42048 13.8931 6.8625 13.9762C6.05373 13.0967 5.43162 12.0623 5.03375 10.9356H7.63688V14.055H8.37625V10.9269H10.9663C10.5679 12.052 9.94577 13.0848 9.1375 13.9631C9.58883 13.8791 10.0291 13.744 10.45 13.5606C11.0203 12.7586 11.4631 11.8731 11.7625 10.9356Z" fill="#3EB87F"/>
</g>
</g>
</svg>
