<svg width="24" height="24" viewBox="0 0 24 24" fill="none" xmlns="http://www.w3.org/2000/svg">
<path d="M12.0286 16.1643C11.7779 15.9459 11.5727 15.495 11.5727 15.1623V3.60456C11.5727 3.27202 11.3007 3 10.9681 3H10.1927C9.86013 3 9.58811 3.27201 9.58811 3.60456L9.58798 15.1619C9.58798 15.4947 9.37463 15.9356 9.11401 16.1422C9.11401 16.1422 8 17.0243 8 17.8585C8 19.1462 9.13318 20.1902 10.531 20.1902C11.9285 20.1902 13.0616 19.1461 13.0616 17.8585C13.0616 17.0644 12.0286 16.1641 12.0286 16.1641L12.0286 16.1643Z" fill="#3EB87F"/>
<path d="M11.3217 6.35846C11.3217 6.691 11.0497 6.96302 10.7171 6.96302H10.4524C10.1198 6.96302 9.84779 6.69101 9.84779 6.35846L9.84766 3.86726C9.84766 3.53471 10.1197 3.2627 10.4522 3.2627H10.717C11.0496 3.2627 11.3216 3.5347 11.3216 3.86726L11.3217 6.35846Z" fill="#3EB87F"/>
<path d="M14.5928 13.6009C14.5928 14.172 14.1304 14.6345 13.559 14.6345C12.9877 14.6345 12.5254 14.1721 12.5254 13.6009L13.5451 11.7402L14.5928 13.6009Z" fill="#3EB87F"/>
<path d="M15.7055 15.2925C15.7021 15.624 15.4313 15.8898 15.0996 15.8866C14.7686 15.8837 14.5025 15.6127 14.5059 15.2811L15.1079 14.207L15.7055 15.2925Z" fill="#3EB87F"/>
<path d="M15.4864 12.6413C15.4847 12.8388 15.323 12.9974 15.1256 12.9954C14.9283 12.9935 14.7693 12.832 14.7715 12.6346L15.1307 11.9941L15.4864 12.6413Z" fill="#3EB87F"/>
<path d="M12.0076 18.3373C11.9879 18.337 12.005 18.3369 12.0456 18.3369C12.0857 18.3369 11.9985 18.5812 11.8514 18.8795L11.8035 18.9765C11.6567 19.2748 11.318 19.5191 11.0511 19.5191H10.5653H10.08C9.81304 19.5191 9.47434 19.2748 9.32729 18.9765L9.27934 18.8795C9.13229 18.5812 9.0455 18.3369 9.08622 18.3369C9.1272 18.3369 9.43268 18.3369 9.76525 18.3372L11.4391 18.3374C11.7714 18.3374 12.0274 18.3373 12.0076 18.3373H12.0076Z" fill="#3EB87F"/>
<path d="M10.3454 18.0755C9.96007 18.0532 9.73975 17.929 9.54261 17.5552C9.34546 17.181 9.36917 17.0372 9.56805 16.5996L9.58024 16.6011C10.0444 16.6841 10.1753 16.7483 10.3702 17.1196C10.568 17.4932 10.5453 17.7456 10.3452 18.0752" fill="#3EB87F"/>
<path d="M10.7972 17.0096C10.6255 16.9998 10.5273 16.9444 10.4396 16.7779C10.3519 16.6115 10.3623 16.5473 10.4511 16.3525L10.4562 16.3529C10.663 16.39 10.7214 16.4188 10.8078 16.584C10.8956 16.7502 10.8856 16.8628 10.7965 17.0096" fill="#3EB87F"/>
<path d="M11.0186 18.0758C10.8433 17.8606 10.8023 17.6829 10.9053 17.3964C11.0088 17.1101 11.0967 17.0532 11.4256 16.9463L11.4303 16.9538C11.6119 17.2405 11.6407 17.3412 11.5389 17.6249C11.4361 17.9112 11.2906 18.0213 11.0186 18.075" fill="#3EB87F"/>
</svg>
