<svg width="24" height="24" viewBox="0 0 24 24" fill="none" xmlns="http://www.w3.org/2000/svg">
<path d="M3.93287 10.3758H11.6101C12.5389 10.3825 13.4376 10.046 14.1335 9.43072C14.8294 8.81547 15.2736 7.96487 15.3809 7.04225C15.4843 6.00603 15.1409 4.97479 14.4367 4.20751C13.7376 3.43995 12.748 3.00175 11.7098 3H9.63818C9.30496 3 8.99707 3.17786 8.83044 3.46635C8.66383 3.75497 8.66383 4.11055 8.83044 4.39916C8.99705 4.68765 9.30496 4.86552 9.63818 4.86552H11.7098C12.2348 4.86619 12.7341 5.0932 13.08 5.48815C13.4258 5.88312 13.5849 6.40796 13.5164 6.92856C13.4477 7.3752 13.2192 7.78169 12.8732 8.07243C12.5274 8.36332 12.0878 8.51855 11.636 8.50957H3.9327C3.59948 8.50957 3.29159 8.68729 3.12496 8.97592C2.95834 9.26456 2.95836 9.61998 3.12496 9.9086C3.29157 10.1972 3.59948 10.375 3.9327 10.375L3.93287 10.3758Z" fill="#3EB87F"/>
<path d="M20.9833 16.529C20.876 15.6064 20.4319 14.7559 19.7361 14.1408C19.0402 13.5255 18.1418 13.1888 17.213 13.1954H10.7999C10.4667 13.1954 10.1588 13.3731 9.99214 13.6618C9.82554 13.9504 9.82554 14.306 9.99214 14.5944C10.1588 14.883 10.4667 15.0608 10.7999 15.0608H17.2384C17.6901 15.0518 18.1298 15.2072 18.4756 15.4979C18.8216 15.7888 19.0501 16.1953 19.1188 16.6418C19.1873 17.1624 19.0284 17.6872 18.6824 18.0822C18.3365 18.4773 17.8372 18.7042 17.3122 18.705H15.2398C14.9066 18.705 14.5987 18.8827 14.432 19.1713C14.2654 19.4598 14.2654 19.8154 14.432 20.104C14.5986 20.3926 14.9066 20.5704 15.2398 20.5704H17.3113C18.3499 20.5694 19.3403 20.1315 20.0398 19.3638C20.7437 18.5964 21.0868 17.5651 20.983 16.5291L20.9833 16.529Z" fill="#3EB87F"/>
<path d="M8.74479 14.1299C8.74466 13.8824 8.64635 13.6452 8.47157 13.4702C8.29666 13.2951 8.05946 13.1966 7.81212 13.1963H3.93269C3.59948 13.1963 3.29158 13.374 3.12496 13.6626C2.95835 13.9513 2.95835 14.3068 3.12496 14.5953C3.29156 14.8839 3.59947 15.0617 3.93269 15.0617H7.81212C8.05922 15.0614 8.29613 14.9631 8.47092 14.7885C8.64571 14.6138 8.74427 14.377 8.74481 14.1299L8.74479 14.1299Z" fill="#3EB87F"/>
<path d="M15.7062 10.9778C15.7857 10.9778 15.8621 10.9462 15.9183 10.8899L16.5505 10.2578H16.5503C17.4191 10.43 18.3153 10.141 18.9198 9.4937C19.5244 8.84642 19.7515 7.93278 19.5203 7.07776C19.4927 6.97383 19.4116 6.89267 19.3077 6.86508C18.4526 6.63405 17.539 6.86119 16.8917 7.46563C16.2444 8.07019 15.9554 8.96632 16.1277 9.83508L15.4941 10.4654C15.4084 10.5512 15.3826 10.6802 15.4291 10.7923C15.4756 10.9044 15.5849 10.9774 15.7062 10.9775L15.7062 10.9778Z" fill="#3EB87F"/>
<path d="M9.23042 16.3247L8.59825 15.6926C8.48053 15.5789 8.29343 15.5806 8.1777 15.6963C8.06197 15.812 8.06038 15.9991 8.17409 16.1169L8.80584 16.749V16.7489C8.64312 17.5855 8.90481 18.4483 9.50483 19.0536C10.1288 19.671 11.5236 20.1953 12.1988 19.5036H12.199C12.4297 18.6488 12.2027 17.7356 11.5987 17.0884C10.9945 16.4412 10.0989 16.152 9.2304 16.3235L9.23042 16.3247Z" fill="#3EB87F"/>
</svg>
