<svg width="335" height="59" viewBox="0 0 335 59" fill="none" xmlns="http://www.w3.org/2000/svg">
<path d="M1 58L323 58" stroke="#C4FFE3" stroke-width="2" stroke-linecap="round"/>
<path d="M85 33C85 32.4477 85.4477 32 86 32H90C90.5523 32 91 32.4477 91 33V58H85V33Z" fill="#C4FFE3"/>
<path d="M91 14C91 13.4477 91.4477 13 92 13H96C96.5523 13 97 13.4477 97 14V58H91V14Z" fill="#C4FFE3"/>
<path d="M97 11C97 10.4477 97.4477 10 98 10H102C102.552 10 103 10.4477 103 11V58H97V11Z" fill="#C4FFE3"/>
<path d="M103 0.999999C103 0.447714 103.448 0 104 0H108C108.552 0 109 0.447715 109 1V58H103V0.999999Z" fill="#C4FFE3"/>
<path d="M109 8C109 7.44772 109.448 7 110 7H114C114.552 7 115 7.44772 115 8V58H109V8Z" fill="#C4FFE3"/>
<path d="M115 16C115 15.4477 115.448 15 116 15H120C120.552 15 121 15.4477 121 16V58H115V16Z" fill="#C4FFE3"/>
<path d="M121 11C121 10.4477 121.448 10 122 10H126C126.552 10 127 10.4477 127 11V58H121V11Z" fill="#C4FFE3"/>
<path d="M127 14C127 13.4477 127.448 13 128 13H132C132.552 13 133 13.4477 133 14V58H127V14Z" fill="#C4FFE3"/>
<path d="M133 16C133 15.4477 133.448 15 134 15H138C138.552 15 139 15.4477 139 16V58H133V16Z" fill="#C4FFE3"/>
<path d="M139 0.999999C139 0.447714 139.448 0 140 0H144C144.552 0 145 0.447715 145 1V58H139V0.999999Z" fill="#C4FFE3"/>
<path d="M145 23C145 22.4477 145.448 22 146 22H150C150.552 22 151 22.4477 151 23V58H145V23Z" fill="#C4FFE3"/>
<path d="M151 11C151 10.4477 151.448 10 152 10H156C156.552 10 157 10.4477 157 11V58H151V11Z" fill="#C4FFE3"/>
<path d="M157 20C157 19.4477 157.448 19 158 19H162C162.552 19 163 19.4477 163 20V58H157V20Z" fill="#C4FFE3"/>
<path d="M163 14C163 13.4477 163.448 13 164 13H168C168.552 13 169 13.4477 169 14V58H163V14Z" fill="#C4FFE3"/>
<path d="M169 11C169 10.4477 169.448 10 170 10H174C174.552 10 175 10.4477 175 11V58H169V11Z" fill="#C4FFE3"/>
<path d="M175 16C175 15.4477 175.448 15 176 15H180C180.552 15 181 15.4477 181 16V58H175V16Z" fill="#C4FFE3"/>
<path d="M181 20C181 19.4477 181.448 19 182 19H186C186.552 19 187 19.4477 187 20V58H181V20Z" fill="#C4FFE3"/>
<path d="M187 14C187 13.4477 187.448 13 188 13H192C192.552 13 193 13.4477 193 14V58H187V14Z" fill="#C4FFE3"/>
<path d="M193 0.999999C193 0.447714 193.448 0 194 0H198C198.552 0 199 0.447715 199 1V58H193V0.999999Z" fill="#C4FFE3"/>
<path d="M199 8C199 7.44772 199.448 7 200 7H204C204.552 7 205 7.44772 205 8V58H199V8Z" fill="#C4FFE3"/>
<path d="M205 20C205 19.4477 205.448 19 206 19H210C210.552 19 211 19.4477 211 20V58H205V20Z" fill="#C4FFE3"/>
<path d="M211 19C211 18.4477 211.448 18 212 18H216C216.552 18 217 18.4477 217 19V58H211V19Z" fill="#C4FFE3"/>
<path d="M217 14C217 13.4477 217.448 13 218 13H222C222.552 13 223 13.4477 223 14V58H217V14Z" fill="#C4FFE3"/>
<path d="M223 23C223 22.4477 223.448 22 224 22H228C228.552 22 229 22.4477 229 23V58H223V23Z" fill="#C4FFE3"/>
<path d="M229 27C229 26.4477 229.448 26 230 26H234C234.552 26 235 26.4477 235 27V58H229V27Z" fill="#C4FFE3"/>
<path d="M235 11C235 10.4477 235.448 10 236 10H240C240.552 10 241 10.4477 241 11V58H235V11Z" fill="#C4FFE3"/>
<path d="M241 22C241 21.4477 241.448 21 242 21H246C246.552 21 247 21.4477 247 22V58H241V22Z" fill="#C4FFE3"/>
<path d="M247 29C247 28.4477 247.448 28 248 28H252C252.552 28 253 28.4477 253 29V58H247V29Z" fill="#C4FFE3"/>
<path d="M253 19C253 18.4477 253.448 18 254 18H258C258.552 18 259 18.4477 259 19V58H253V19Z" fill="#C4FFE3"/>
<path d="M259 27C259 26.4477 259.448 26 260 26H264C264.552 26 265 26.4477 265 27V58H259V27Z" fill="#C4FFE3"/>
<path d="M265 23C265 22.4477 265.448 22 266 22H270C270.552 22 271 22.4477 271 23V58H265V23Z" fill="#C4FFE3"/>
<path d="M271 52C271 51.4477 271.448 51 272 51H276C276.552 51 277 51.4477 277 52V58H271V52Z" fill="#C4FFE3"/>
<path d="M277 56C277 55.4477 277.448 55 278 55H282C282.552 55 283 55.4477 283 56V58H277V56Z" fill="#C4FFE3"/>
<path d="M79 45C79 44.4477 79.4477 44 80 44H84C84.5523 44 85 44.4477 85 45V58H79V45Z" fill="#C4FFE3"/>
<path d="M73 52C73 51.4477 73.4477 51 74 51H78C78.5523 51 79 51.4477 79 52V58H73V52Z" fill="#C4FFE3"/>
<path d="M67 52C67 51.4477 67.4477 51 68 51H72C72.5523 51 73 51.4477 73 52V58H67V52Z" fill="#C4FFE3"/>
</svg>
