<svg width="24" height="24" viewBox="0 0 24 24" fill="none" xmlns="http://www.w3.org/2000/svg">
<g id="colors">
<path id="Ellipse 32" d="M24 12C24 10.8517 23.8352 9.70933 23.5106 8.60786L12 12H24Z" fill="#65B457"/>
<path id="Ellipse 33" d="M23.508 8.59905C23.1825 7.49783 22.7007 6.44902 22.0772 5.48471L12 12L23.508 8.59905Z" fill="#6EC98D"/>
<path id="Ellipse 34" d="M22.0887 5.50238C21.4669 4.53697 20.7098 3.66581 19.8404 2.91554L12 12L22.0887 5.50238Z" fill="#60BDC1"/>
<path id="Ellipse 35" d="M19.869 2.94028C19.0021 2.18728 18.0315 1.56261 16.9871 1.08538L12 12L19.869 2.94028Z" fill="#5EAEDF"/>
<path id="Ellipse 36" d="M16.98 1.08215C15.9353 0.605598 14.8275 0.281476 13.6907 0.119694L12 12L16.98 1.08215Z" fill="#3E63AA"/>
<path id="Ellipse 37" d="M13.6908 0.119713C12.5539 -0.0420825 11.3998 -0.0398634 10.2635 0.126302L12 12L13.6908 0.119713Z" fill="#374495"/>
<path id="Ellipse 38" d="M10.2955 0.121676C9.15881 0.284786 8.05144 0.610201 7.00725 1.08797L12 12L10.2955 0.121676Z" fill="#313486"/>
<path id="Ellipse 39" d="M7.00321 1.08982C5.95919 1.56797 4.98921 2.1935 4.12293 2.94728L12 12L7.00321 1.08982Z" fill="#433287"/>
<path id="Ellipse 40" d="M4.13513 2.93668C3.26784 3.68929 2.51307 4.56248 1.8939 5.52956L12 12L4.13513 2.93668Z" fill="#5E328A"/>
<path id="Ellipse 41" d="M1.90288 5.51554C1.28237 6.48175 0.803758 7.53203 0.481682 8.63424L12 12L1.90288 5.51554Z" fill="#6E3178"/>
<path id="Ellipse 42" d="M0.481656 8.63433C0.159588 9.73654 -0.00260742 10.8793 3.16922e-05 12.0276L12 12L0.481656 8.63433Z" fill="#823354"/>
<path id="Ellipse 43" d="M0 12C-1.00388e-07 13.1483 0.164821 14.2907 0.489421 15.3921L12 12L0 12Z" fill="#802732"/>
<path id="Ellipse 44" d="M0.4846 15.3757C0.807631 16.4777 1.28715 17.5275 1.9085 18.4932L12 12L0.4846 15.3757Z" fill="#A12E2E"/>
<path id="Ellipse 45" d="M1.90509 18.4879C2.52593 19.4539 3.28221 20.3258 4.1508 21.0769L12 12L1.90509 18.4879Z" fill="#BB3430"/>
<path id="Ellipse 46" d="M4.15421 21.0798C5.02308 21.8306 5.99522 22.4528 7.04088 22.9274L12 12L4.15421 21.0798Z" fill="#D34332"/>
<path id="Ellipse 47" d="M7.03186 22.9233C8.07713 23.3987 9.18522 23.7216 10.3223 23.8821L12 12L7.03186 22.9233Z" fill="#DF6837"/>
<path id="Ellipse 48" d="M10.3224 23.8822C11.4595 24.0427 12.6136 24.0392 13.7497 23.8718L12 12L10.3224 23.8822Z" fill="#ECA144"/>
<path id="Ellipse 49" d="M13.7436 23.8726C14.8797 23.7058 15.986 23.3767 17.0286 22.8955L12 12L13.7436 23.8726Z" fill="#F6CF4E"/>
<path id="Ellipse 50" d="M17.0223 22.8985C18.0652 22.4179 19.0337 21.7901 19.8982 21.0343L12 12L17.0223 22.8985Z" fill="#F6EC56"/>
<path id="Ellipse 51" d="M19.8967 21.0356C20.7613 20.28 21.513 19.4041 22.1288 18.4349L12 12L19.8967 21.0356Z" fill="#DCE15A"/>
<path id="Ellipse 52" d="M22.1232 18.4436C22.7398 17.4749 23.2142 16.4227 23.5318 15.3192L12 12L22.1232 18.4436Z" fill="#A2C854"/>
<path id="Ellipse 53" d="M23.5177 15.3679C23.84 14.2658 24.0024 13.1231 24 11.9748L12 12L23.5177 15.3679Z" fill="#89BF52"/>
</g>
</svg>
