<svg width="38" height="38" viewBox="0 0 38 38" fill="none" xmlns="http://www.w3.org/2000/svg">
<rect y="2" width="38" height="36" rx="18" fill="#C4FFE3"/>
<path d="M16.7736 28.25L16.75 20.75H13.75V17.75H16.75V15.875C16.75 13.0914 18.4737 11.75 20.9569 11.75C22.1463 11.75 23.1686 11.8386 23.4665 11.8781V14.7871L21.7443 14.7879C20.3938 14.7879 20.1324 15.4296 20.1324 16.3713V17.75H24.0625L22.5625 20.75H20.1324V28.25H16.7736Z" fill="#3EB87F"/>
<path d="M25.1673 7.0013C25.1673 10.2096 27.7923 12.8346 31.0007 12.8346C34.209 12.8346 36.834 10.2096 36.834 7.0013C36.834 3.79297 34.209 1.16797 31.0007 1.16797C27.7923 1.16797 25.1673 3.79297 25.1673 7.0013Z" fill="white" stroke="#3EB87F" stroke-width="1.5" stroke-linecap="round" stroke-linejoin="round"/>
<path d="M30.9993 9.33143V9.33667" stroke="#3EB87F" stroke-width="1.5" stroke-linecap="round" stroke-linejoin="round"/>
<path d="M30.9993 6.99549V7.00073" stroke="#3EB87F" stroke-width="1.5" stroke-linecap="round" stroke-linejoin="round"/>
<path d="M30.9993 4.66346V4.6687" stroke="#3EB87F" stroke-width="1.5" stroke-linecap="round" stroke-linejoin="round"/>
</svg>
