<svg width="38" height="38" viewBox="0 0 38 38" fill="none" xmlns="http://www.w3.org/2000/svg">
<rect y="2" width="38" height="36" rx="18" fill="#C4FFE3"/>
<path fillRule="evenodd" clip-rule="evenodd" d="M17.0717 17.7267H19.8572V19.1142C20.2585 18.3162 21.2875 17.5992 22.8332 17.5992C25.7965 17.5992 26.5 19.1877 26.5 22.1022V27.5H23.5V22.766C23.5 21.1062 23.0987 20.1702 22.0772 20.1702C20.6605 20.1702 20.0717 21.179 20.0717 22.7652V27.5H17.0717V17.7267ZM11.9275 27.3725H14.9275V17.5992H11.9275V27.3725ZM15.3572 14.4125C15.3574 14.664 15.3075 14.9129 15.2105 15.1449C15.1136 15.377 14.9715 15.5874 14.7925 15.764C14.4298 16.1245 13.9389 16.3262 13.4275 16.325C12.917 16.3247 12.4272 16.1234 12.064 15.7648C11.8857 15.5875 11.744 15.3769 11.6473 15.1448C11.5505 14.9128 11.5004 14.6639 11.5 14.4125C11.5 13.9048 11.7025 13.4188 12.0647 13.0603C12.4277 12.7011 12.9177 12.4998 13.4282 12.5C13.9397 12.5 14.4302 12.7018 14.7925 13.0603C15.154 13.4188 15.3572 13.9048 15.3572 14.4125Z" fill="#3EB87F"/>
<path d="M25.1673 7.0013C25.1673 10.2096 27.7923 12.8346 31.0007 12.8346C34.209 12.8346 36.834 10.2096 36.834 7.0013C36.834 3.79297 34.209 1.16797 31.0007 1.16797C27.7923 1.16797 25.1673 3.79297 25.1673 7.0013Z" fill="white" stroke="#3EB87F" stroke-width="1.5" stroke-linecap="round" stroke-linejoin="round"/>
<path d="M30.9993 9.33143V9.33667" stroke="#3EB87F" stroke-width="1.5" stroke-linecap="round" stroke-linejoin="round"/>
<path d="M30.9993 6.99549V7.00073" stroke="#3EB87F" stroke-width="1.5" stroke-linecap="round" stroke-linejoin="round"/>
<path d="M30.9993 4.66346V4.6687" stroke="#3EB87F" stroke-width="1.5" stroke-linecap="round" stroke-linejoin="round"/>
</svg>
