<svg width="38" height="38" viewBox="0 0 38 38" fill="none" xmlns="http://www.w3.org/2000/svg">
<rect y="2" width="38" height="36" rx="18" fill="#D6D6D6"/>
<rect x="10" y="11" width="18" height="18" rx="9" fill="#767676"/>
<path d="M21.0368 14.75H19.0814V22.3109C19.0814 23.2117 18.3293 23.9517 17.3934 23.9517C16.4575 23.9517 15.7054 23.2117 15.7054 22.3109C15.7054 21.4261 16.4408 20.7022 17.3433 20.67V18.7717C15.3544 18.8039 13.75 20.3643 13.75 22.3109C13.75 24.2735 15.3879 25.85 17.4101 25.85C19.4324 25.85 21.0702 24.2574 21.0702 22.3109V18.4339C21.8056 18.9487 22.7081 19.2543 23.6607 19.2704V17.3722C22.19 17.3239 21.0368 16.1657 21.0368 14.75Z" fill="white"/>
<path d="M30.9993 12.8346C34.2077 12.8346 36.8327 10.2096 36.8327 7.0013C36.8327 3.79297 34.2077 1.16797 30.9993 1.16797C27.791 1.16797 25.166 3.79297 25.166 7.0013C25.166 10.2096 27.791 12.8346 30.9993 12.8346Z" fill="white" stroke="#3EB87F" stroke-width="1.5" stroke-linecap="round" stroke-linejoin="round"/>
<path d="M28.666 7H33.3327" stroke="#3EB87F" stroke-width="1.5" stroke-linecap="round" stroke-linejoin="round"/>
<path d="M31 9.33464V4.66797" stroke="#3EB87F" stroke-width="1.5" stroke-linecap="round" stroke-linejoin="round"/>
</svg>
