<svg width="38" height="38" viewBox="0 0 38 38" fill="none" xmlns="http://www.w3.org/2000/svg">
<rect y="2" width="38" height="36" rx="18" fill="#C4FFE3"/>
<path d="M28 14.4516C27.325 14.7516 26.65 14.9766 25.9 15.0516C26.65 14.6016 27.25 13.8516 27.55 13.0266C26.8 13.4766 26.05 13.7766 25.225 13.9266C24.55 13.1766 23.575 12.7266 22.525 12.7266C20.5 12.7266 18.85 14.3766 18.85 16.4016C18.85 16.7016 18.85 17.0016 18.925 17.2266C15.775 17.0766 13.075 15.5766 11.275 13.3266C10.9 13.9266 10.75 14.5266 10.75 15.2016C10.75 16.4766 11.425 17.6016 12.4 18.2766C11.8 18.2766 11.2 18.1266 10.75 17.8266C10.75 17.8266 10.75 17.8266 10.75 17.9016C10.75 19.7016 12.025 21.2016 13.675 21.5016C13.375 21.5766 13.075 21.6516 12.7 21.6516C12.475 21.6516 12.25 21.6516 12.025 21.5766C12.475 23.0766 13.825 24.1266 15.475 24.1266C14.2 25.1016 12.625 25.7016 10.9 25.7016C10.6 25.7016 10.3 25.7016 10 25.6266C11.65 26.6766 13.6 27.2766 15.625 27.2766C22.45 27.2766 26.125 21.6516 26.125 16.7766C26.125 16.6266 26.125 16.4766 26.125 16.3266C26.875 15.8016 27.475 15.1266 28 14.4516Z" fill="#3EB87F"/>
<path d="M25.1673 7.0013C25.1673 10.2096 27.7923 12.8346 31.0007 12.8346C34.209 12.8346 36.834 10.2096 36.834 7.0013C36.834 3.79297 34.209 1.16797 31.0007 1.16797C27.7923 1.16797 25.1673 3.79297 25.1673 7.0013Z" fill="white" stroke="#3EB87F" stroke-width="1.5" stroke-linecap="round" stroke-linejoin="round"/>
<path d="M30.9993 9.33143V9.33667" stroke="#3EB87F" stroke-width="1.5" stroke-linecap="round" stroke-linejoin="round"/>
<path d="M30.9993 6.99549V7.00073" stroke="#3EB87F" stroke-width="1.5" stroke-linecap="round" stroke-linejoin="round"/>
<path d="M30.9993 4.66346V4.6687" stroke="#3EB87F" stroke-width="1.5" stroke-linecap="round" stroke-linejoin="round"/>
</svg>
